<?xml version="1.0" encoding="UTF-8"?>
<svg width="14px" height="15px" viewBox="0 0 14 15" version="1.1" xmlns="http://www.w3.org/2000/svg" xmlns:xlink="http://www.w3.org/1999/xlink">
    <title>Address book</title>
    <g id="auPay" stroke="none" stroke-width="1" fill="none" fill-rule="evenodd">
        <g id="付款" transform="translate(-301, -375)" fill="#363853" fill-rule="nonzero">
            <g id="Address-book" transform="translate(301, 375)">
                <path d="M10,0 C12.209139,0 14,1.790861 14,4 L14,11 C14,13.209139 12.209139,15 10,15 L4,15 C1.790861,15 0,13.209139 0,11 L0,4 C0,1.790861 1.790861,0 4,0 L10,0 Z M7.00895383,4.21977575 C5.75470714,4.21977575 4.69167959,5.21123035 4.69167959,6.59172641 C4.69167959,7.39501502 4.96125654,7.91833465 5.53473898,8.44121584 C5.74089266,8.60597787 5.90131197,8.79632296 6.01606798,9.00627463 C6.24559643,9.42620802 6.27176306,9.85985112 6.18285497,10.2562004 C6.16465725,10.3373252 6.14464481,10.4018827 6.14457365,10.3947673 C5.94556804,11.1080061 5.43092715,11.4140262 4.30147413,11.7863275 L3.92610556,11.9086474 C3.78022613,11.9564139 3.66632586,11.9949117 3.55741103,12.0337059 C2.94155746,12.2530658 2.52568798,12.4778425 2.2412791,12.7749741 C2.69244477,13.2236584 3.31395087,13.5 4,13.5 L10,13.5 C10.691116,13.5 11.316732,13.2195615 11.7692605,12.7662721 C11.486407,12.4803162 11.0761583,12.2660443 10.4580189,12.0513312 C10.3637006,12.0185694 10.2649756,11.9856878 10.1397497,11.9450348 L9.81492585,11.8400873 C8.63911553,11.4572636 8.1098121,11.1478016 7.88204563,10.4232152 C7.86765928,10.3801215 7.85104366,10.3187399 7.83585726,10.2414153 C7.7650186,9.88072613 7.78102522,9.48984691 7.95199486,9.10512353 C8.06320762,8.85486772 8.23412737,8.63030274 8.44796799,8.45839147 C9.05027149,7.93324935 9.32622807,7.39578706 9.32622807,6.59172641 C9.32622807,5.23515412 8.24743634,4.21977575 7.00895383,4.21977575 Z M10,1.5 L4,1.5 C2.61928813,1.5 1.5,2.61928813 1.5,4 L1.5,11 C1.5,11.2377385 1.53318446,11.4677263 1.59517404,11.6855841 C1.99211916,11.3597533 2.48983083,11.1137569 3.11974922,10.8893873 C3.24077641,10.8462789 3.36443189,10.8044839 3.51998064,10.7535512 L3.89291435,10.6320312 C4.62087694,10.3920731 4.87919767,10.2384683 4.94156731,10.0246737 L4.94750098,9.99812737 C4.97887198,9.85827649 4.96970615,9.70637701 4.89809348,9.57535816 C4.86109472,9.50766715 4.80669769,9.4431225 4.69836275,9.35493254 C3.85640833,8.58976332 3.42771182,7.75755086 3.42771182,6.59172641 C3.42771182,4.52807987 5.06610353,3 7.00895383,3 C8.93853443,3 10.5901958,4.55457371 10.5901958,6.59172641 C10.5901958,7.76100888 10.150056,8.61824003 9.27696341,9.3788718 C9.19936772,9.44146626 9.14759672,9.50948621 9.11364361,9.58588898 C9.05607782,9.71542606 9.04968477,9.87154315 9.07771668,10.0142732 C9.08262722,10.0392762 9.08610854,10.0521369 9.08833183,10.0590849 C9.15312397,10.2651195 9.4316945,10.4279883 10.2189852,10.6843166 L10.5427549,10.7889214 C10.6756616,10.8320679 10.7821679,10.8675412 10.8860844,10.903637 C11.5187737,11.123404 12.0128875,11.3598939 12.4078124,11.6736515 C12.4679292,11.4599399 12.5,11.2337152 12.5,11 L12.5,4 C12.5,2.61928813 11.3807119,1.5 10,1.5 Z" id="形状结合"></path>
            </g>
        </g>
    </g>
</svg>