<?xml version="1.0" encoding="UTF-8"?>
<svg width="20px" height="20px" viewBox="0 0 20 20" version="1.1" xmlns="http://www.w3.org/2000/svg" xmlns:xlink="http://www.w3.org/1999/xlink">
    <title>apple</title>
    <g id="页面-1" stroke="none" stroke-width="1" fill="none" fill-rule="evenodd">
        <g id="注册1" transform="translate(-181, -653)" fill="#656565" fill-rule="nonzero">
            <g id="苹果" transform="translate(173, 646)">
                <g id="编组-2" transform="translate(8, 7)">
                    <path d="M13.9644013,4.68812877 C14.9083064,4.68812877 15.7578209,4.94299128 16.512945,5.4527163 C16.9174757,5.72099262 17.3287487,6.1167002 17.7467638,6.63983903 C17.1264833,7.17639168 16.6747573,7.64587525 16.3915858,8.04828974 C15.8656958,8.79946345 15.6027508,9.61770624 15.6027508,10.5030181 C15.6027508,11.4822267 15.8791802,12.3675386 16.4320388,13.1589537 C16.9848975,13.9369551 17.6186624,14.4399732 18.3333333,14.668008 C18.0231931,15.620389 17.531014,16.6130114 16.8567961,17.6458753 C15.8185005,19.2018779 14.7936893,19.9798793 13.7823625,19.9798793 C13.4048004,19.9798793 12.8451996,19.852448 12.1035599,19.5975855 C11.4158576,19.342723 10.8158037,19.2152918 10.3033981,19.2152918 C9.79099245,19.2152918 9.22464941,19.3494299 8.60436893,19.6177062 C7.95711974,19.8725687 7.42448759,20 7.00647249,20 C5.79288026,20 4.59951456,18.9738431 3.4263754,16.9215292 C2.25323625,14.8960429 1.66666667,12.9040912 1.66666667,10.945674 C1.66666667,9.13480885 2.11165049,7.65258216 3.00161812,6.49899396 C3.91855448,5.34540577 5.05124056,4.76861167 6.39967638,4.76861167 C6.69633225,4.76861167 7.02669903,4.80549966 7.3907767,4.87927565 C7.75485437,4.95305164 8.1324164,5.09054326 8.52346278,5.2917505 C8.94147789,5.51978538 9.28532902,5.67739772 9.55501618,5.76458753 C9.82470334,5.85177733 10.0337109,5.89537223 10.1820388,5.89537223 C10.3573355,5.89537223 10.6270227,5.85513078 10.9911003,5.77464789 C11.355178,5.69416499 11.7192557,5.54661301 12.0833333,5.33199195 C12.4743797,5.11737089 12.8114887,4.9564051 13.0946602,4.84909457 C13.3778317,4.74178404 13.6677454,4.68812877 13.9644013,4.68812877 Z M13.7621359,0 C13.7891046,0.134138162 13.8093312,0.228034876 13.8228155,0.281690141 L13.8228155,0.503018109 C13.8228155,0.985915493 13.7081985,1.52917505 13.4789644,2.13279678 C13.236246,2.72300469 12.8654261,3.26626425 12.3665049,3.76257545 C11.8945523,4.20523139 11.4630529,4.49362844 11.0720065,4.6277666 C10.9371629,4.66800805 10.7652373,4.70489604 10.5562298,4.73843058 C10.3472222,4.77196512 10.1078749,4.80214621 9.8381877,4.82897384 C9.85167206,3.64855801 10.1618123,2.62910798 10.7686084,1.77062374 C11.3754045,0.912139504 12.373247,0.32193159 13.7621359,0 Z" id="形状"></path>
                </g>
            </g>
        </g>
    </g>
</svg>