<?xml version="1.0" encoding="UTF-8"?>
<svg width="28px" height="28px" viewBox="0 0 28 28" version="1.1" xmlns="http://www.w3.org/2000/svg" xmlns:xlink="http://www.w3.org/1999/xlink">
    <title>Home备份</title>
    <g id="控件" stroke="none" stroke-width="1" fill="none" fill-rule="evenodd">
        <g id="Nav-Bottom备份" transform="translate(-29, -19)" fill="#333333" fill-rule="nonzero">
            <g id="Home备份" transform="translate(29, 19)">
                <path d="M11.7329571,2.8696165 C13.0512752,1.74217314 14.99159,1.70731314 16.3501406,2.78664316 C21.5314215,6.90049661 24.1220619,8.95742333 24.1220619,8.95742333 C24.7840915,9.50718001 25.166666,10.31995 25.166666,11.1768201 L25.166666,21.340447 C25.166666,22.401227 24.7415094,23.4183971 23.9850276,24.1674904 C23.2285458,24.9166071 22.2029163,25.3360471 21.1344608,25.3334134 L18.8467722,25.3334134 C18.0546907,25.3276004 17.4156258,24.6885004 17.4156479,23.9020971 L17.4156479,20.3344536 C17.4156479,19.4237536 16.6720228,18.6854636 15.7547218,18.6854636 L12.4015037,18.6854636 C11.4882814,18.6911569 10.7509959,19.427767 10.7510181,20.3344536 L10.7510181,23.9124804 L10.7092339,23.9124804 C10.7092561,24.2911104 10.5570376,24.6540838 10.2863826,24.9208304 C10.0157276,25.1876004 9.64902448,25.3360704 9.26766915,25.3334134 L7.03220522,25.3334134 C4.80527545,25.3334134 3,23.5409904 3,21.330087 L3,11.1768201 C3.020482,10.30616 3.43486565,9.49096335 4.12817247,8.95742333 C9.19802888,4.89888544 11.7329571,2.8696165 11.7329571,2.8696165 Z M13.2953173,4.82129028 C13.1706487,4.92109039 13.0582426,5.0110741 12.9508262,5.09706283 L12.8448038,5.18193552 L12.6884719,5.30708068 C12.6383995,5.3471639 12.5880796,5.38744503 12.536704,5.42857097 L12.4323057,5.51214093 C12.1488795,5.73902018 11.8200993,6.00219677 11.3233612,6.39980837 L11.128972,6.55540604 C10.8586504,6.77178292 10.5425079,7.02483536 10.1652192,7.32683058 L9.87054833,7.56269543 C8.89960156,8.33987451 7.56214024,9.41042008 5.65285703,10.9386697 C5.55738754,11.012139 5.50200258,11.1210951 5.5,11.1768201 L5.5,21.330087 C5.5,22.1562602 6.18200114,22.8333901 7.03220522,22.8333901 L8.209,22.833 L8.20908758,21.4124804 L8.251,21.412 L8.25101811,20.3345148 C8.25096393,18.1184121 9.99156616,16.3122362 12.1795258,16.1918232 L12.3859182,16.1855122 L15.7547218,16.1854636 C18.0487135,16.1854636 19.9156479,18.0389884 19.9156479,20.3344536 L19.915,22.833 L21.1407074,22.8333901 C21.4979006,22.8342777 21.8416769,22.7120492 22.1138599,22.4915255 L22.2259569,22.3910697 C22.5087651,22.1110237 22.666666,21.73325 22.666666,21.340447 L22.666666,11.1768201 C22.666666,11.0643729 22.6157241,10.9561423 22.5675172,10.915328 C22.4401086,10.8141677 22.3252321,10.7229575 22.215491,10.6358249 L22.1071878,10.5498339 L22.0538065,10.50745 L21.947557,10.4230896 C21.6108823,10.1557753 21.2638966,9.88027432 20.6717275,9.41010156 L20.4763026,9.25493736 C19.4897086,8.47159759 17.8743285,7.18901183 14.7950103,4.74408272 C14.3734706,4.40918134 13.7664671,4.42008874 13.2953173,4.82129028 Z" id="Home"></path>
            </g>
        </g>
    </g>
</svg>