<?xml version="1.0" encoding="UTF-8"?>
<svg width="28px" height="28px" viewBox="0 0 28 28" version="1.1" xmlns="http://www.w3.org/2000/svg" xmlns:xlink="http://www.w3.org/1999/xlink">
    <title>icon/资产</title>
    <defs>
        <rect id="path-1" x="0" y="0" width="28" height="28"></rect>
    </defs>
    <g id="控件" stroke="none" stroke-width="1" fill="none" fill-rule="evenodd">
        <g id="Nav-Bottom备份" transform="translate(-115, -19)">
            <g id="icon/资产" transform="translate(115, 19)">
                <mask id="mask-2" fill="white">
                    <use xlink:href="#path-1"></use>
                </mask>
                <g id="Iconly/Bulk/资产"></g>
                <path d="M14,1.75 C17.5558391,1.75 20.4460659,2.67416843 22.5593245,4.73483138 C24.8370766,6.95589382 26.25,10.5530827 26.25,14 C26.25,17.5569862 24.8379879,21.3204656 22.5514324,23.5112743 C20.492863,25.4836435 17.7226338,26.25 14,26.25 C10.4655727,26.25 7.064494,25.348764 5.03770533,23.5417064 C2.69737023,21.4550951 1.75,18.2049462 1.75,14 C1.75,10.5741967 2.95493055,6.89082185 4.96171613,4.77053195 C7.03951799,2.57520906 9.95790729,1.75 14,1.75 Z M14,4.25 C10.5781348,4.25 8.28211196,4.89922758 6.7774143,6.48903133 C5.25401148,8.09859822 4.25,11.1677798 4.25,14 C4.25,17.5618718 5.00937948,20.1670797 6.7014251,21.6756849 C8.18505059,22.9984654 11.021187,23.75 14,23.75 C17.1397073,23.75 19.3174299,23.1475546 20.8218639,21.706117 C22.5845146,20.0172752 23.75,16.910871 23.75,14 C23.75,11.2061487 22.5923397,8.25883904 20.8139718,6.5247319 C19.2250207,4.97532725 16.956646,4.25 14,4.25 Z M11.701903,8.69669914 C12.9711069,7.42749519 15.0288931,7.42749519 16.298097,8.69669914 L19.3033009,11.701903 C20.5725048,12.9711069 20.5725048,15.0288931 19.3033009,16.298097 L16.298097,19.3033009 C15.0288931,20.5725048 12.9711069,20.5725048 11.701903,19.3033009 L8.69669914,16.298097 C7.42749519,15.0288931 7.42749519,12.9711069 8.69669914,11.701903 L11.701903,8.69669914 Z M14.5303301,10.4644661 C14.2374369,10.1715729 13.7625631,10.1715729 13.4696699,10.4644661 L10.4644661,13.4696699 C10.1715729,13.7625631 10.1715729,14.2374369 10.4644661,14.5303301 L13.4696699,17.5355339 C13.7625631,17.8284271 14.2374369,17.8284271 14.5303301,17.5355339 L17.5355339,14.5303301 C17.8284271,14.2374369 17.8284271,13.7625631 17.5355339,13.4696699 L14.5303301,10.4644661 Z" id="形状结合" fill="#333333" fill-rule="nonzero" mask="url(#mask-2)"></path>
            </g>
        </g>
    </g>
</svg>