<?xml version="1.0" encoding="UTF-8"?>
<svg width="28px" height="28px" viewBox="0 0 28 28" version="1.1" xmlns="http://www.w3.org/2000/svg" xmlns:xlink="http://www.w3.org/1999/xlink">
    <title>行情</title>
    <defs>
        <rect id="path-1" x="0" y="0" width="28" height="28"></rect>
    </defs>
    <g id="控件" stroke="none" stroke-width="1" fill="none" fill-rule="evenodd">
        <g id="Nav-Bottom备份" transform="translate(-200, -19)">
            <g id="行情" transform="translate(200, 19)">
                <mask id="mask-2" fill="white">
                    <use xlink:href="#path-1"></use>
                </mask>
                <g id="Iconly/Bulk/行情"></g>
                <path d="M24.9707568,11.6504958 C25.8530899,12.3024925 26.3676705,13.3393211 26.3533681,14.4363202 L26.2643386,21.2651829 C26.2286705,24.0009522 24.0007653,26.2000211 21.2647635,26.2000211 L4.63737309,26.2000211 C2.96635816,26.2000211 1.6117329,24.8453959 1.6117329,23.1743809 C1.6117329,23.0155168 1.62424484,22.8568994 1.64915267,22.7 C2.00095225,20.483944 4.47307997,16.7465088 8.47474976,16.7465088 C9.37195187,16.7465088 9.90689946,16.7864482 10.4046289,16.8360282 L10.8101506,16.8781302 C11.4941572,16.9498368 12.2737944,17.0241043 13.9732529,17.0241043 C16.3129869,17.0241043 17.6849353,15.7403799 19.978712,12.6689756 L20.2036316,12.3661453 C21.3224157,10.8521189 23.4567304,10.5317117 24.9707568,11.6504958 Z M22.214249,13.8518834 C19.1053744,18.0590564 17.2541141,19.5241043 13.9732529,19.5241043 C12.4971782,19.5241043 11.6457508,19.4783898 10.6206619,19.3719333 C10.4624146,19.355353 10.4624146,19.355353 10.3156766,19.3399458 C9.65679514,19.2713289 9.23652699,19.2465088 8.47474976,19.2465088 C6.37679692,19.2465088 4.40193288,21.30489 4.11823378,23.0919674 C4.11390658,23.1192253 4.1117329,23.1467817 4.1117329,23.1743809 C4.1117329,23.4646793 4.34705841,23.7 4.63737309,23.7 L21.2647635,23.7 C22.6327644,23.7 23.746717,22.6004761 23.7645511,21.2325926 L23.853658,14.4037287 C23.8573931,14.1113023 23.7202217,13.8349155 23.4850187,13.6611132 C23.0814256,13.3628796 22.5124826,13.4482903 22.214249,13.8518834 Z M19.8685773,3.73696622 L21.4753174,8.05765901 C21.7159416,8.70472264 21.3864573,9.42433577 20.7393937,9.66495993 C20.09233,9.90558409 19.3727169,9.57609981 19.1320927,8.92903618 L18.4243302,7.02296602 C18.4205114,7.02847557 18.4166579,7.0340335 18.4127704,7.03963886 L18.2522628,7.27024689 C18.0782834,7.51943345 17.8676463,7.81887014 17.6541713,8.11918825 C17.0028554,9.03546382 16.3418861,9.94003594 15.7144118,10.76475 C14.9088853,11.823485 14.2098192,12.6833515 13.6440685,13.2942634 C12.3383017,14.7042634 11.7575321,15.1315621 10.7195481,14.2323007 C10.4900988,14.0335164 9.52034748,13.490637 8.63354669,13.0979538 C8.13809135,12.8785618 7.69589862,12.7154877 7.36900426,12.6324881 C7.33451428,12.623731 7.30226229,12.6161225 7.27252109,12.6096167 L7.23837106,12.6426893 C6.70323593,13.1751556 5.50310348,14.5267262 3.76739126,16.5729002 L3.54764712,16.8322807 C3.10172499,17.3592956 2.31300364,17.4250344 1.78598867,16.9791123 C1.2589737,16.5331901 1.19323496,15.7444688 1.63915708,15.2174538 C4.07635221,12.3370443 5.44680884,10.8136613 6.00329565,10.404139 C7.0490548,9.63455798 9.86758232,10.6900248 11.5543353,11.759015 L11.6154021,11.7988672 L11.7049707,11.7072296 L11.8098038,11.5955954 C12.3094156,11.0561019 12.9639807,10.2509727 13.7248104,9.2509844 C14.3340674,8.45021404 14.9797074,7.56662096 15.6165121,6.67075972 C15.786768,6.43124251 15.955091,6.19241414 16.1027561,5.9816275 L14.4327422,6.32414364 C13.8015732,6.45371888 13.183904,6.08284332 12.9914788,5.48299907 L12.9569037,5.35105533 C12.8180731,4.67480287 13.2537396,4.01404749 13.9299921,3.87521687 L18.4455899,2.94819142 C19.0495345,2.82420517 19.6536817,3.15908941 19.8685773,3.73696622 Z" id="形状结合" fill="#333333" fill-rule="nonzero" mask="url(#mask-2)"></path>
            </g>
        </g>
    </g>
</svg>