<?xml version="1.0" encoding="UTF-8"?>
<svg width="28px" height="28px" viewBox="0 0 28 28" version="1.1" xmlns="http://www.w3.org/2000/svg" xmlns:xlink="http://www.w3.org/1999/xlink">
    <title>用户</title>
    <g id="控件" stroke="none" stroke-width="1" fill="none" fill-rule="evenodd">
        <g id="Nav-Bottom备份" transform="translate(-286, -19)" fill="#333333" fill-rule="nonzero">
            <g id="用户" transform="translate(286, 19)">
                <path d="M14,14.75 C22.1118141,14.75 25.25,16.1621837 25.25,20.5 C25.25,24.8378163 22.1118141,26.25 14,26.25 C5.88818589,26.25 2.75,24.8378163 2.75,20.5 C2.75,16.1621837 5.88818589,14.75 14,14.75 Z M14.3641638,17.2508061 L13.6358362,17.2508061 C7.04695621,17.2804411 5.25,18.1313684 5.25,20.5 C5.25,22.9116977 7.11289411,23.75 14,23.75 C20.8871059,23.75 22.75,22.9116977 22.75,20.5 C22.75,18.0883023 20.8871059,17.25 14,17.25 L14.3641638,17.2508061 Z M14,1.75 C17.6901399,1.75 19.25,3.30986006 19.25,7 C19.25,10.6901399 17.6901399,12.25 14,12.25 C10.3098601,12.25 8.75,10.6901399 8.75,7 C8.75,3.30986006 10.3098601,1.75 14,1.75 Z M14,4.25 C11.6905719,4.25 11.25,4.69057194 11.25,7 C11.25,9.30942806 11.6905719,9.75 14,9.75 C16.3094281,9.75 16.75,9.30942806 16.75,7 C16.75,4.69057194 16.3094281,4.25 14,4.25 Z" id="形状结合"></path>
            </g>
        </g>
    </g>
</svg>