<?xml version="1.0" encoding="UTF-8"?>
<svg width="28px" height="28px" viewBox="0 0 28 28" version="1.1" xmlns="http://www.w3.org/2000/svg" xmlns:xlink="http://www.w3.org/1999/xlink">
    <title>Home2</title>
    <g id="控件" stroke="none" stroke-width="1" fill="none" fill-rule="evenodd">
        <g id="Nav-Bottom选中" transform="translate(-29, -19)" fill="#1C63FF" stroke="#1C63FF" stroke-width="2.5">
            <g id="Homes" transform="translate(29, 19)">
                <path d="M14.1489165,3.35038811 C14.6862946,3.34073112 15.2271657,3.51149749 15.6728683,3.8655955 L23.4325475,10.0266557 C23.8021715,10.338063 24.016666,10.794798 24.016666,11.2768201 L24.016666,21.440447 C24.016666,22.1681571 23.7243,22.8655395 23.2054784,23.3792938 C22.6832392,23.8964484 21.9749871,24.1852238 21.2344608,24.1833774 L18.9558888,24.1834107 L18.7656479,20.4344536 C18.7656479,19.6329032 18.4390958,18.9068105 17.9098609,18.3813788 C17.383903,17.8592007 16.6575103,17.5354636 15.8547218,17.5354636 L12.493711,17.5354879 C11.6944661,17.5404706 10.9726122,17.8659747 10.4503097,18.3878039 C9.92476654,18.9128708 9.6009986,19.6364569 9.60101811,20.4344536 L9.60101811,23.9296189 L7.13220522,24.1833774 C6.36288971,24.1833774 5.66600873,23.8744539 5.16171532,23.3737768 C4.66068253,22.8763369 4.35,22.1893514 4.35,21.430087 L4.35,11.2936036 C4.36541644,10.8009725 4.60411922,10.3415658 4.99870291,10.0417855 L12.6316317,3.93144863 C13.0661381,3.55410504 13.6059615,3.36014531 14.1489165,3.35038811 Z" id="Home"></path>
            </g>
        </g>
    </g>
</svg>