<?xml version="1.0" encoding="UTF-8"?>
<svg width="28px" height="28px" viewBox="0 0 28 28" version="1.1" xmlns="http://www.w3.org/2000/svg" xmlns:xlink="http://www.w3.org/1999/xlink">
    <title>zichan2</title>
    <g id="控件" stroke="none" stroke-width="1" fill="none" fill-rule="evenodd">
        <g id="Nav-Bottom选中" transform="translate(-114.5789, -19)" fill="#1C63FF" stroke="#1C63FF" stroke-width="2.5">
            <g id="icon/资产" transform="translate(115, 19)">
                <path d="M14,3 C16.987402,3 19.7043725,3.69684166 21.6866482,5.62978164 C23.7354962,7.62763708 25,10.9122697 25,14 C25,17.1226871 23.7764113,20.6064389 21.6866482,22.6086957 C19.7108143,24.5017938 16.9524451,25 14,25 C11.190307,25 7.8137747,24.3421267 5.86956522,22.6086957 C3.60999531,20.5940935 3,17.2654392 3,14 C3,11.071893 4.00403663,7.60082502 5.86956522,5.62978164 C7.87456904,3.51137427 10.8529747,3 14,3 Z M16.1213203,9.05025253 C14.9497475,7.87867966 13.0502525,7.87867966 11.8786797,9.05025253 L9.05025253,11.8786797 C7.87867966,13.0502525 7.87867966,14.9497475 9.05025253,16.1213203 L11.8786797,18.9497475 C13.0502525,20.1213203 14.9497475,20.1213203 16.1213203,18.9497475 L18.9497475,16.1213203 C20.1213203,14.9497475 20.1213203,13.0502525 18.9497475,11.8786797 Z" id="形状结合"></path>
            </g>
        </g>
    </g>
</svg>