<?xml version="1.0" encoding="UTF-8"?>
<svg width="28px" height="28px" viewBox="0 0 28 28" version="1.1" xmlns="http://www.w3.org/2000/svg" xmlns:xlink="http://www.w3.org/1999/xlink">
    <title>hangqing2</title>
    <defs>
        <rect id="path-1" x="0" y="0" width="28" height="28"></rect>
    </defs>
    <g id="控件" stroke="none" stroke-width="1" fill="none" fill-rule="evenodd">
        <g id="Nav-Bottom选中" transform="translate(-199.5789, -18)">
            <g id="行情" transform="translate(199, 19)">
                <mask id="mask-2" fill="white">
                    <use xlink:href="#path-1"></use>
                </mask>
                <g id="Iconly/Bulk/行情"></g>
                <path d="M20.6607326,2.31949881 C24.0875521,2.79196907 26.8228897,5.41306523 27.4405593,8.81671097 C27.7605846,10.5834827 27.9210526,12.3111906 27.9210526,14 C27.9210526,16.3895739 27.5249057,18.7690462 26.7326118,21.1384168 C26.1141605,22.981 24.4846533,24.2990807 22.5533972,24.5178126 C19.712597,24.8392925 17.1947955,25 15,25 C13.3124992,25 11.3162299,24.9049973 9.0111922,24.7149919 L8.42849971,24.6655156 C5.39292288,24.4003593 2.9264887,22.104928 2.44427557,19.0961899 C2.07193525,16.7729962 1.62630869,13.1923798 2.04865736,11.0455397 C2.47100603,8.89869969 2.93994763,6.52142697 6.05135948,4.60501961 C7.81044777,3.52154692 10.9957825,2.66998075 14.5789474,2.15344661 C16.1633452,1.92504641 18.1906069,1.98039714 20.6607326,2.31949881 Z M21.3025988,8.67211434 C21.1468922,8.19523478 20.7091459,7.91887926 20.2715464,8.02119607 L16.9996845,8.78620251 C16.509693,8.90076929 16.1940226,9.44604248 16.2946149,10.0041043 L16.3178181,10.106347 C16.4550965,10.6052546 16.9045946,10.9145294 17.3639616,10.807123 L18.8764156,10.4518845 C18.7351775,10.6522766 18.5049535,10.9749743 18.2699143,11.2993554 C17.7827315,11.9717235 17.2887894,12.634884 16.8226818,13.2358838 C16.2406146,13.9864021 15.7398444,14.5906733 15.35762,14.9955779 L15.2774183,15.0793624 L15.2088944,15.1481389 L15.1621757,15.1182287 C13.8717377,14.3159226 11.7154439,13.5237662 10.9153936,14.1013576 C10.4896574,14.4087152 9.44119961,15.5520553 7.57664135,17.7138806 C7.2354919,18.1094196 7.28578484,18.7013764 7.68897378,19.036053 C8.09216272,19.3707296 8.69556821,19.3213909 9.03671766,18.9258519 L9.2048313,18.7311798 C10.3851814,17.3661052 11.2417853,16.4129367 11.7051051,15.937301 L11.8602789,15.7814502 L11.8864052,15.7566283 C11.9091585,15.7615111 11.9338326,15.7672215 11.9602189,15.7737939 C12.2103071,15.8360874 12.5486034,15.9584789 12.9276478,16.1231385 C13.6060883,16.4178579 14.3479894,16.8253036 14.5235279,16.9744966 C15.3176299,17.6494166 15.7619435,17.3287174 16.7609108,16.2704742 C17.1937342,15.8119683 17.7285496,15.1666152 18.3448118,14.3720059 C18.8248564,13.7530357 19.3305261,13.0741298 19.8288105,12.3864402 C20.0180514,12.125266 20.2043773,11.8649801 20.3475346,11.6632278 L20.768965,12.9567507 C20.9433138,13.4907251 21.4647231,13.7626244 21.9335653,13.5640549 C22.4024075,13.3654853 22.6411416,12.7716411 22.4667928,12.2376667 Z" id="形状结合" fill="#1C63FF" mask="url(#mask-2)"></path>
            </g>
        </g>
    </g>
</svg>