<?xml version="1.0" encoding="UTF-8"?>
<svg width="28px" height="28px" viewBox="0 0 28 28" version="1.1" xmlns="http://www.w3.org/2000/svg" xmlns:xlink="http://www.w3.org/1999/xlink">
    <title>yonghu2</title>
    <g id="控件" stroke="none" stroke-width="1" fill="none" fill-rule="evenodd">
        <g id="Nav-Bottom选中" transform="translate(-286, -19)">
            <g id="yonghu2" transform="translate(286, 19)">
                <path d="M14,16 C21.49946,16 24,17.125243 24,20.5 C24,23.874757 21.49946,25 14,25 C6.50054,25 4,23.874757 4,20.5 C4,17.125243 6.50054,16 14,16 C14,16 14,16 14,16 Z M18,7 C18,9.999784 16.999784,11 14,11 C11.000216,11 10,9.999784 10,7 C10,4.000216 11.000216,3 14,3 C16.999784,3 18,4.000216 18,7 Z" id="形状结合" stroke="#1C63FF" stroke-width="2.5" fill="#1C63FF" stroke-linecap="round" stroke-linejoin="round"></path>
                <rect id="矩形" fill="#FFFFFF" transform="translate(14, 20) rotate(50) translate(-14, -20)" x="13" y="17" width="2" height="6" rx="1"></rect>
            </g>
        </g>
    </g>
</svg>