<?xml version="1.0" encoding="UTF-8"?>
<svg width="26px" height="30px" viewBox="0 0 26 30" version="1.1" xmlns="http://www.w3.org/2000/svg" xmlns:xlink="http://www.w3.org/1999/xlink">
    <title>ClipBoard</title>
    <g id="auPay" stroke="none" stroke-width="1" fill="none" fill-rule="evenodd">
        <g id="提现地址选择" transform="translate(-32, -264)">
            <g id="ClipBoard" transform="translate(32, 264)">
                <rect id="矩形" fill="#F2F2F2" x="0" y="2" width="26" height="28" rx="8"></rect>
                <path d="M18,2 C22.418278,2 26,5.581722 26,10 L26,22 C26,26.418278 22.418278,30 18,30 L8,30 C3.581722,30 0,26.418278 0,22 L0,10 C0,5.581722 3.581722,2 8,2 L18,2 Z M18,4 L8,4 C4.6862915,4 2,6.6862915 2,10 L2,22 C2,25.3137085 4.6862915,28 8,28 L18,28 C21.3137085,28 24,25.3137085 24,22 L24,10 C24,6.6862915 21.3137085,4 18,4 Z" id="矩形" fill="#363853" fill-rule="nonzero"></path>
                <rect id="矩形" fill="#363853" x="7" y="12" width="12" height="4" rx="2"></rect>
                <rect id="矩形备份" fill="#363853" x="7" y="18" width="12" height="4" rx="2"></rect>
                <rect id="矩形" fill="#D8D8D8" x="6" y="0" width="13" height="8" rx="3"></rect>
                <path d="M16,0 C17.6568542,0 19,1.34314575 19,3 L19,5 C19,6.65685425 17.6568542,8 16,8 L9,8 C7.34314575,8 6,6.65685425 6,5 L6,3 C6,1.34314575 7.34314575,0 9,0 L16,0 Z M16,2 L9,2 C8.44771525,2 8,2.44771525 8,3 L8,5 C8,5.55228475 8.44771525,6 9,6 L16,6 C16.5522847,6 17,5.55228475 17,5 L17,3 C17,2.44771525 16.5522847,2 16,2 Z" id="矩形" fill="#363853" fill-rule="nonzero"></path>
            </g>
        </g>
    </g>
</svg>