<?xml version="1.0" encoding="utf-8" ?>
<svg xmlns="http://www.w3.org/2000/svg" xmlns:xlink="http://www.w3.org/1999/xlink" width="19" height="21">
	<path fill="#363853" d="M14.641026 0C17.04842 0 19 1.9571552 19 4.3714285L19 12.628572C19 14.680559 17.590183 16.402325 15.68894 16.872854C15.275909 19.218119 13.228398 21 10.764706 21L5 21C2.2385762 21 0 18.761423 0 16L0 8.4444447C0 5.9973321 1.7579788 3.9608173 4.0799174 3.5289199C4.4719925 1.5181549 6.2386966 0 8.3589745 0L14.641026 0ZM2 8.4444447L2 16C2 17.656855 3.3431458 19 5 19L10.764706 19C12.070588 19 13.181591 18.165623 13.593681 17.0009L8.3589745 17C5.9515791 17 4 15.042845 4 12.628572L4.0000887 5.6151185C2.8348501 6.0269299 2 7.1381922 2 8.4444447ZM14.746988 2L8.2530117 2C7.008708 2 6 3.0073593 6 4.25L6 12.75C6 13.99264 7.008708 15 8.2530117 15L14.746988 15C15.991292 15 17 13.99264 17 12.75L17 4.25C17 3.0073593 15.991292 2 14.746988 2Z"/>
</svg>
