<?xml version="1.0" encoding="utf-8" ?>
<svg xmlns="http://www.w3.org/2000/svg" xmlns:xlink="http://www.w3.org/1999/xlink" width="17" height="19">
	<path fill="#5686E1" d="M13.099865 0C15.25385 0 17 1.7707595 17 3.955102L17 11.42585C17 13.282614 15.738309 14.84054 14.036914 15.266056C13.667816 17.387913 11.835874 19 9.6315794 19L4.4736843 19C2.0029366 19 0 16.974621 0 14.476191L0 7.6402116C0 5.4255486 1.5737936 3.5825834 3.6521664 3.1925104C4.0021844 1.3727626 5.5825486 0 7.4790821 0L13.099865 0ZM3.5778036 5.0807829C2.5358605 5.4537234 1.7894737 6.458827 1.7894737 7.6402116L1.7894737 14.476191C1.7894737 15.975249 2.9912357 17.190475 4.4736843 17.190475L9.6315794 17.190475C10.800249 17.190475 11.794478 16.435242 12.163003 15.381094L7.4790821 15.380953C5.3250971 15.380953 3.5789473 13.610193 3.5789473 11.42585L3.5778036 5.0807829ZM13.194674 1.8095238L7.384274 1.8095238C6.2709494 1.8095238 5.3684211 2.7209442 5.3684211 3.8452382L5.3684211 11.535714C5.3684211 12.660008 6.2709494 13.571428 7.384274 13.571428L13.194674 13.571428C14.307999 13.571428 15.210526 12.660008 15.210526 11.535714L15.210526 3.8452382C15.210526 2.7209442 14.307999 1.8095238 13.194674 1.8095238Z"/>
</svg>
