<?xml version="1.0" encoding="UTF-8"?>
<svg width="14px" height="14px" viewBox="0 0 14 14" version="1.1" xmlns="http://www.w3.org/2000/svg" xmlns:xlink="http://www.w3.org/1999/xlink">
    <title>Edit Square</title>
    <g id="页面-1" stroke="none" stroke-width="1" fill="none" fill-rule="evenodd" stroke-linecap="round" stroke-linejoin="round">
        <g id="用户信息" transform="translate(-68, -173)" stroke="#FFFFFF" stroke-width="2">
            <g id="Edit-Square" transform="translate(69, 174)">
                <path d="M6,0 C1.500324,0 0,1.500324 0,6 C0,10.499676 1.500324,12 6,12 C10.499676,12 12,10.499676 12,6" id="Stroke-1"></path>
                <path d="M8.68493941,1.14154564 C8.68493941,1.14154564 5.85099056,4.34262704 4.86828763,5.45376393 C3.8842932,6.564247 4.60559129,8.09830377 4.60559129,8.09830377 C4.60559129,8.09830377 6.22980174,8.61268182 7.19888396,7.51776109 C8.16861546,6.42284036 11.0168343,3.20619662 11.0168343,3.20619662 C11.5869918,2.56208937 11.5266655,1.57808922 10.8832101,1.00792397 C10.2390984,0.437758713 9.25510401,0.497438397 8.68493941,1.14154564 C8.68493941,1.14154564 8.68493941,1.14154564 8.68493941,1.14154564 Z" id="Stroke-3"></path>
                <line x1="7.95164696" y1="1.97888514" x2="10.2835389" y2="4.04353384" id="Stroke-5"></line>
            </g>
        </g>
    </g>
</svg>