<?xml version="1.0" encoding="UTF-8"?>
<svg width="20px" height="20px" viewBox="0 0 20 20" version="1.1" xmlns="http://www.w3.org/2000/svg" xmlns:xlink="http://www.w3.org/1999/xlink">
    <title>Edit Square</title>
    <g id="auPay" stroke="none" stroke-width="1" fill="none" fill-rule="evenodd">
        <g id="地址管理" transform="translate(-283, -131)" fill-rule="nonzero">
            <g id="编组" transform="translate(19, 117)">
                <g id="Edit-Square" transform="translate(265, 15)">
                    <path d="M9,-1 C9.55228475,-1 10,-0.55228475 10,0 C10,0.55228475 9.55228475,1 9,1 C2.80277075,1 1,2.80277075 1,9 C1,15.1972293 2.80277075,17 9,17 C15.1972293,17 17,15.1972293 17,9 C17,8.44771525 17.4477153,8 18,8 C18.5522847,8 19,8.44771525 19,9 C19,16.3017987 16.3017987,19 9,19 C1.69820125,19 -1,16.3017987 -1,9 C-1,1.69820125 1.69820125,-1 9,-1 Z" id="Stroke-1" fill="#363853"></path>
                    <path d="M16.8172465,0.794048885 C18.2674456,1.98692609 18.4050723,4.08313793 17.1138623,5.43722315 C16.9123845,5.64844682 16.9123845,5.64844682 16.1064694,6.49333575 C15.0990686,7.54944686 15.0990686,7.54944686 13.8901612,8.81678235 C12.6514901,10.1153101 11.7039531,11.1085896 11.163147,11.675427 C10.6289594,12.2357025 9.97262607,12.6067808 9.23514928,12.8110087 C8.36180545,13.052862 7.46363153,13.0471025 6.61803815,12.8973566 C6.39468316,12.8578027 6.22329474,12.8165039 6.11529236,12.7847528 C5.85064602,12.7069506 5.62989147,12.523286 5.50524969,12.2772062 C5.43203315,12.132655 5.33649439,11.9050086 5.2442004,11.6096956 C4.95895488,10.6969954 4.89122173,9.7334618 5.19445102,8.79258763 C5.3697894,8.24853944 5.66409564,7.74783054 6.08278254,7.3092051 C6.62817554,6.73675102 7.57094119,5.7477963 8.79865144,4.46020253 L8.95958869,4.29141615 C9.58743791,3.63294928 10.0894959,3.1064507 11.0218833,2.12870961 C11.6398186,1.48073702 11.7852152,1.32827288 11.9097672,1.19767151 L11.9674175,1.13722164 C11.9872374,1.11643935 12.0082087,1.09444982 12.0319761,1.06952835 C13.283264,-0.24267445 15.409683,-0.362578312 16.8172465,0.794048885 Z M15.5471098,2.33896073 C14.9462403,1.84521255 14.0052607,1.89827222 13.4793441,2.44979136 C13.2772981,2.66164737 13.2772981,2.66164737 12.4692579,3.50896561 C11.4592075,4.56814751 10.954186,5.09775702 10.2471564,5.83927312 C9.01859526,7.12775926 8.07595717,8.11658017 7.53015189,8.68946633 C7.3216969,8.90784861 7.18201986,9.14548386 7.09803282,9.40608281 C6.9405767,9.89464511 6.98032883,10.4601365 7.15314444,11.0130947 L7.136,10.953 L7.21600265,10.9656065 C7.63409499,11.0177163 8.06327821,11.015608 8.4643942,10.938779 L8.70138246,10.8835511 C9.10546011,10.7716507 9.44393601,10.5802829 9.71586588,10.2950729 C10.2568479,9.72805113 11.2043567,8.73480108 12.4427619,7.43655213 L12.644223,7.22535418 C13.6553664,6.16534081 13.711139,6.10687144 14.6592736,5.11289225 C15.2755567,4.46680581 15.4205645,4.31478547 15.5447316,4.18461256 L15.6021999,4.12436455 C15.6219562,4.10365265 15.6428594,4.08173834 15.6665496,4.05690212 C16.152287,3.54751194 16.1029583,2.79618014 15.5471098,2.33896073 Z" id="Stroke-3" fill="#5686E1"></path>
                    <path d="M11.4696699,2.46966991 C11.7625631,2.1767767 12.2374369,2.1767767 12.5303301,2.46966991 L15.5303301,5.46966991 C15.8232233,5.76256313 15.8232233,6.23743687 15.5303301,6.53033009 C15.2374369,6.8232233 14.7625631,6.8232233 14.4696699,6.53033009 L11.4696699,3.53033009 C11.1767767,3.23743687 11.1767767,2.76256313 11.4696699,2.46966991 Z" id="Stroke-5" fill="#5686E1"></path>
                </g>
            </g>
        </g>
    </g>
</svg>