<?xml version="1.0" encoding="UTF-8"?>
<svg width="20px" height="20px" viewBox="0 0 20 20" version="1.1" xmlns="http://www.w3.org/2000/svg" xmlns:xlink="http://www.w3.org/1999/xlink">
    <title>ewm</title>
    <g id="auPay" stroke="none" stroke-width="1" fill="none" fill-rule="evenodd">
        <path d="M6,0 C7.65685425,0 9,1.34314575 9,3 L9,6 C9,7.65685425 7.65685425,9 6,9 L3,9 C1.34314575,9 0,7.65685425 0,6 L0,3 C0,1.34314575 1.34314575,0 3,0 L6,0 Z M6,2 L3,2 C2.44771525,2 2,2.44771525 2,3 L2,6 C2,6.55228475 2.44771525,7 3,7 L6,7 C6.55228475,7 7,6.55228475 7,6 L7,3 C7,2.44771525 6.55228475,2 6,2 Z M6,11 C7.65685425,11 9,12.3431458 9,14 L9,17 C9,18.6568542 7.65685425,20 6,20 L3,20 C1.34314575,20 0,18.6568542 0,17 L0,14 C0,12.3431458 1.34314575,11 3,11 L6,11 Z M6,13 L3,13 C2.44771525,13 2,13.4477153 2,14 L2,17 C2,17.5522847 2.44771525,18 3,18 L6,18 C6.55228475,18 7,17.5522847 7,17 L7,14 C7,13.4477153 6.55228475,13 6,13 Z M17,0 C18.6568542,0 20,1.34314575 20,3 L20,6 C20,7.65685425 18.6568542,9 17,9 L14,9 C12.3431458,9 11,7.65685425 11,6 L11,3 C11,1.34314575 12.3431458,0 14,0 L17,0 Z M17,2 L14,2 C13.4477153,2 13,2.44771525 13,3 L13,6 C13,6.55228475 13.4477153,7 14,7 L17,7 C17.5522847,7 18,6.55228475 18,6 L18,3 C18,2.44771525 17.5522847,2 17,2 Z M17,11 C18.6568542,11 20,12.3431458 20,14 L20,17 C20,18.6568542 18.6568542,20 17,20 L14,20 C12.3431458,20 11,18.6568542 11,17 L11,14 C11,12.3431458 12.3431458,11 14,11 L17,11 Z M17,13 L14,13 C13.4477153,13 13,13.4477153 13,14 L13,17 C13,17.5522847 13.4477153,18 14,18 L17,18 C17.5522847,18 18,17.5522847 18,17 L18,14 C18,13.4477153 17.5522847,13 17,13 Z M15.5,14 C16.3284271,14 17,14.6715729 17,15.5 C17,16.3284271 16.3284271,17 15.5,17 C14.6715729,17 14,16.3284271 14,15.5 C14,14.6715729 14.6715729,14 15.5,14 Z M15.5,15 C15.2238576,15 15,15.2238576 15,15.5 C15,15.7761424 15.2238576,16 15.5,16 C15.7761424,16 16,15.7761424 16,15.5 C16,15.2238576 15.7761424,15 15.5,15 Z" id="ewm" fill="#363853" fill-rule="nonzero"></path>
    </g>
</svg>