<?xml version="1.0" encoding="utf-8" ?>
<svg xmlns="http://www.w3.org/2000/svg" xmlns:xlink="http://www.w3.org/1999/xlink" width="16" height="12">
	<path fill="#B8B8B8" transform="translate(0 -7.62939e-05)" d="M7.9996657 0C2.7718346 0 0 5.5085464 0 5.5085464C0 5.5085464 2.9928412 10.404746 7.9996657 10.404746C13.006824 10.404746 16 5.5085464 16 5.5085464C16 5.5085464 13.541061 0 7.9996657 0ZM8.0046148 8.3366079C6.410531 8.3366079 5.118197 6.9354076 5.118197 5.2072525C5.118197 3.4791224 6.410531 2.0778975 8.0046148 2.0778975C9.5986977 2.0778975 10.890965 3.4791224 10.890965 5.2072525C10.890965 6.9354076 9.598609 8.3366079 8.0046148 8.3366079ZM8 3.9312367C7.3020701 3.9312367 6.7363119 4.5547299 6.7363119 5.3237429C6.7363119 6.0926566 7.3020701 6.7162485 8 6.7162485C8.6979523 6.7162485 9.263711 6.0926566 9.263711 5.3237429C9.263711 4.5547299 8.6979523 3.9312367 8 3.9312367Z" fill-rule="evenodd"/>
</svg>
