<?xml version="1.0" encoding="utf-8" ?>
<svg xmlns="http://www.w3.org/2000/svg" xmlns:xlink="http://www.w3.org/1999/xlink" width="18" height="16">
	<path fill="#141124" transform="translate(0.0732269 0.0732422)" d="M11.75 2C12.164213 2 12.5 2.3357863 12.5 2.75L12.5 11.94L15.21967 9.2196703C15.485936 8.9534035 15.9026 8.9291973 16.196211 9.1470518L16.280331 9.2196703C16.573223 9.5125628 16.573223 9.9874372 16.280331 10.28033L12.28033 14.28033C11.987437 14.573223 11.512563 14.573223 11.21967 14.28033L8.2196703 11.28033C7.9267769 10.987437 7.9267769 10.512563 8.2196703 10.21967C8.5125628 9.9267769 8.9874372 9.9267769 9.2803297 10.21967L11 11.938L11 2.75C11 2.3703043 11.282154 2.056509 11.64823 2.0068467L11.75 2ZM4.2196698 0.21966991C4.5125632 -0.073223308 4.9874368 -0.073223308 5.2803302 0.21966991L8.2803297 3.2196698C8.5732231 3.5125632 8.5732231 3.9874368 8.2803297 4.2803302L8.1962118 4.3529482C7.9026003 4.5708027 7.4859366 4.5465965 7.2196698 4.2803302L5.5 2.5599999L5.5 11.75C5.5 12.164213 5.1642137 12.5 4.75 12.5L4.6482296 12.493154C4.2821541 12.443491 4 12.129696 4 11.75L4 2.562L1.2803301 5.2803302C0.98743689 5.5732231 0.51256311 5.5732231 0.21966991 5.2803302C-0.073223308 4.9874368 -0.073223308 4.5125632 0.21966991 4.2196698L4.2196698 0.21966991Z"/>
</svg>
