<?xml version="1.0" encoding="UTF-8"?>
<svg width="20px" height="20px" viewBox="0 0 20 20" version="1.1" xmlns="http://www.w3.org/2000/svg" xmlns:xlink="http://www.w3.org/1999/xlink">
    <title>Google </title>
    <g id="页面-1" stroke="none" stroke-width="1" fill="none" fill-rule="evenodd">
        <g id="注册1" transform="translate(-80, -653)">
            <g id="Google-sign-in-option备份" transform="translate(72, 646)">
                <g id="编组" transform="translate(8, 7)">
                    <path d="M18.5624045,8.40545654 L10.1794688,8.40545654 L10.1794688,11.6526438 L15.1000646,11.6526438 C15.0008933,12.4596064 14.4651794,13.6748907 13.2746776,14.4915094 C13.2746776,14.4915094 13.2691176,14.5277487 13.2579976,14.6002274 L15.9085211,16.6124891 L16.0921552,16.6304525 C17.7786338,15.1040413 18.7508901,12.8582061 18.7508901,10.1943274 C18.7508901,9.47489519 18.6913187,8.9498937 18.5624045,8.40545654 C18.5624045,8.40545654 18.5624045,8.40545654 18.5624045,8.40545654 Z" id="vector" fill="#4285F4"></path>
                    <path d="M16.0915709,16.6305549 L13.2741065,14.4915898 C12.5201502,15.0068782 11.5082364,15.3666002 10.1789068,15.3666002 C7.81781612,15.3666002 5.81387725,13.8402421 5.09951813,11.7304993 C5.09951813,11.7304993 5.06461545,11.733403 4.99481009,11.7392105 L2.23876221,13.8295163 L2.20272064,13.9277053 C3.67095266,16.7860511 6.68681927,18.7500127 10.1789068,18.7500127 C12.5895667,18.7500127 14.6133527,17.9721874 16.0915709,16.6305549 C16.0915709,16.6305549 16.0915709,16.6305549 16.0915709,16.6305549 Z" id="vector" fill="#34A853"></path>
                    <path d="M4.80245736,9.99998969 C4.80245736,9.39717351 4.91154266,8.8138578 5.09011307,8.26942453 C5.09011307,8.26942453 5.08844895,8.23077376 5.0851207,8.15347221 L2.2945231,6.02961222 L2.20322094,6.0721752 C1.59809004,7.25829919 1.25086466,8.59026989 1.25086466,9.99998969 C1.25086466,11.4097016 1.59809004,12.7416091 2.20322094,13.9277331 C2.20322094,13.9277331 3.16882346,13.1953377 5.10002851,11.730547 C4.91153881,11.1861137 4.80245736,10.6027348 4.80245736,9.99998969 C4.80245736,9.99998969 4.80245736,9.99998969 4.80245736,9.99998969 Z" id="vector" fill="#FBBC05"></path>
                    <path d="M13.6313079,5.93612605 L16.1511469,3.52499907 C14.603569,2.1152788 12.5896255,1.25 10.1789469,1.25 C6.68684676,1.25 3.67095989,3.21387662 2.20272064,6.07218377 C2.20272064,6.07218377 3.16501792,6.80460103 5.08961247,8.26943556 C5.81388451,6.15971613 7.81784096,4.63331179 10.1789469,4.63331179 C11.8555059,4.63331179 12.9864443,5.34302586 13.6313079,5.93612605 C13.6313079,5.93612605 13.6313079,5.93612605 13.6313079,5.93612605 Z" id="vector" fill="#EB4335"></path>
                </g>
            </g>
        </g>
    </g>
</svg>