<?xml version="1.0" encoding="UTF-8"?>
<svg width="46px" height="46px" viewBox="0 0 46 46" version="1.1" xmlns="http://www.w3.org/2000/svg" xmlns:xlink="http://www.w3.org/1999/xlink">
    <title>编组</title>
    <defs>
        <path d="M46,23 C46,35.702532 35.702532,46 23,46 C10.297468,46 0,35.702532 0,23 C0,10.297468 10.297468,0 23,0 C35.702532,0 46,10.297468 46,23 Z" id="path-1"></path>
    </defs>
    <g id="控件" stroke="none" stroke-width="1" fill="none" fill-rule="evenodd">
        <g id="编组">
            <g id="位图">
                <mask id="mask-2" fill="white">
                    <use xlink:href="#path-1"></use>
                </mask>
                <use id="蒙版" fill="#6790E9" xlink:href="#path-1"></use>
            </g>
            <g id="A" transform="translate(14.0308, 13.3633)" fill="#FFFFFF" fill-rule="nonzero">
                <path d="M13.6982422,18.6367188 L12.3525391,14.21875 L5.5859375,14.21875 L4.24023437,18.6367188 L0,18.6367188 L6.55078125,0 L11.3623047,0 L17.9384766,18.6367188 L13.6982422,18.6367188 Z M11.4130859,10.9179688 C10.1689453,6.91471354 9.46858724,4.65071615 9.31201172,4.12597656 C9.1554362,3.60123698 9.04329427,3.18652344 8.97558594,2.88183594 C8.69628906,3.96516927 7.89648438,6.64388021 6.57617188,10.9179688 L11.4130859,10.9179688 Z" id="形状"></path>
            </g>
        </g>
    </g>
</svg>