<?xml version="1.0" encoding="UTF-8"?>
<svg width="100px" height="32px" viewBox="0 0 100 32" version="1.1" xmlns="http://www.w3.org/2000/svg" xmlns:xlink="http://www.w3.org/1999/xlink">
    <title>编组 9</title>
    <defs>
        <polygon id="path-1" points="0 0 13.2743544 0 13.2743544 17.1270588 0 17.1270588"></polygon>
    </defs>
    <g id="页面-1" stroke="none" stroke-width="1" fill="none" fill-rule="evenodd">
        <g id="转账二维码分享海报备份" transform="translate(-35, -552)">
            <g id="编组-9" transform="translate(35, 552)">
                <rect id="矩形" x="0" y="0" width="100" height="31.372549"></rect>
                <g id="导航logo">
                    <rect id="矩形" x="0" y="0" width="100" height="31.372549"></rect>
                    <g id="编组">
                        <path d="M30.813,0.0735294118 C31.024,0.0401960784 31.2,0.231372549 31.142,0.433333333 C30.868,1.39607843 30.722,2.41176471 30.722,3.45882353 C30.722,3.69117647 30.729,3.92058824 30.744,4.14803922 C30.78,4.76078431 30.869,5.35980392 31.002,5.94215686 C31.035,6.08235294 31.069,6.22352941 31.107,6.3627451 C31.2,6.69803922 31.262,7.04117647 31.307,7.38529412 C31.308,7.39215686 31.309,7.39803922 31.31,7.40490196 C31.332,7.58627451 31.346,7.76764706 31.355,7.95196078 C31.362,8.08823529 31.365,8.22352941 31.365,8.35882353 C31.365,8.65686275 31.349,8.95294118 31.318,9.24411765 C31.315,9.26666667 31.312,9.29019608 31.31,9.3127451 C31.268,9.67352941 31.204,10.0264706 31.117,10.3705882 C30.964,10.977451 30.744,11.5598039 30.463,12.1058824 C29.096,14.7745098 26.312,16.6284314 23.078,16.7117647 C22.998,16.7156863 22.919,16.7176471 22.84,16.7176471 C22.798,16.7176471 22.757,16.7176471 22.716,16.7156863 C20.871,16.6911765 19.169,16.0921569 17.786,15.0921569 C17.715,15.0401961 17.625,14.9882353 17.555,14.9343137 L17.555,20.8382353 C17.555,20.995098 17.335,21.0392157 17.273,20.8941176 L17.231,20.795098 C16.917,20.0666667 16.526,19.3705882 16.035,18.7431373 C15.423,17.9607843 14.686,17.2754902 13.854,16.7176471 C13.845,16.7117647 13.836,16.7058824 13.827,16.7 C13.745,16.645098 13.663,16.5921569 13.579,16.5401961 C12.121,15.6333333 10.392,15.1058824 8.54,15.1 L4.556,15.1 C4.394,15.1 4.262,15.2294118 4.262,15.3882353 L4.262,19.2794118 C4.262,19.8147059 4.365,20.3254902 4.553,20.7960784 C5.171,22.354902 6.717,23.4588235 8.525,23.4588235 C8.534,23.4588235 8.544,23.4588235 8.553,23.4578431 L8.562,23.4578431 C8.669,23.4617647 8.777,23.4558824 8.884,23.4431373 L8.885,23.4431373 C9.503,23.372549 10.089,23.0558824 10.477,22.5196078 C11.206,21.5137255 10.965,20.1196078 9.939,19.404902 C9.914,19.3882353 9.889,19.3705882 9.864,19.354902 C9.432,19.0578431 8.984,18.8039216 8.522,18.5911765 C8.029,18.3617647 7.521,18.1794118 7.005,18.0421569 C6.845,17.9990196 6.866,17.7735294 7.032,17.7598039 C7.3,17.7372549 7.572,17.7264706 7.846,17.7264706 C9.648,17.7264706 11.334,18.2078431 12.781,19.0490196 C13.056,19.2058824 13.323,19.3794118 13.579,19.5647059 C13.663,19.6254902 13.745,19.6872549 13.827,19.7509804 C14.035,19.9098039 14.236,20.0764706 14.429,20.2529412 C15.191,20.9411765 15.84,21.75 16.344,22.6480392 C17.107,24.0009804 17.55,25.5529412 17.555,27.2058824 L17.555,27.2372549 L17.555,27.2372549 C17.555,27.4764706 17.358,27.6696078 17.114,27.6696078 L14.268,27.6696078 C14.016,27.6696078 13.817,27.4647059 13.828,27.2186275 C13.849,26.7735294 13.835,26.3284314 13.789,25.8872549 C13.72,25.9401961 13.65,25.9921569 13.579,26.0441176 C12.196,27.0441176 10.493,27.6441176 8.649,27.6686275 C8.608,27.6696078 8.566,27.6696078 8.525,27.6696078 C8.446,27.6696078 8.366,27.6686275 8.287,27.6637255 C5.053,27.5803922 2.269,25.727451 0.902,23.0588235 C0.621,22.5117647 0.401,21.9303922 0.248,21.3235294 C0.161,20.9784314 0.097,20.6254902 0.055,20.2656863 C0.052,20.2421569 0.05,20.2196078 0.047,20.1960784 C0.016,19.904902 0,19.6098039 0,19.3117647 C0,19.1754902 0.002,19.0401961 0.01,18.904902 C0.019,18.7205882 0.033,18.5392157 0.055,18.3578431 C0.056,18.3509804 0.057,18.345098 0.058,18.3382353 C0.102,17.9970588 0.162,17.6568627 0.255,17.3245098 C0.295,17.1823529 0.329,17.0382353 0.363,16.895098 C0.496,16.3127451 0.585,15.7127451 0.621,15.1 C0.636,14.872549 0.643,14.6431373 0.643,14.4117647 C0.643,13.3637255 0.497,12.3490196 0.223,11.3862745 C0.165,11.1843137 0.341,10.9931373 0.552,11.0264706 L3.329,11.4656863 C3.637,11.5147059 3.95,11.5313725 4.262,11.5166667 L4.262,11.5166667 C4.922,11.4872549 5.566,11.4039216 6.191,11.2696078 C6.197,11.2686275 6.203,11.2666667 6.209,11.2656863 C6.386,11.2284314 6.561,11.1852941 6.736,11.1372549 C7.313,11.0166667 7.911,10.9529412 8.525,10.9529412 C10.773,10.9529412 12.817,11.8058824 14.34,13.2009804 C14.523,12.6764706 14.752,12.1735294 15.021,11.695098 C15.703,10.4803922 16.651,9.42843137 17.786,8.6127451 C18.042,8.42647059 18.309,8.25392157 18.584,8.09607843 C20.031,7.25490196 21.717,6.77352941 23.519,6.77352941 C23.793,6.77352941 24.065,6.78529412 24.333,6.80686275 C24.499,6.82058824 24.52,7.04705882 24.36,7.08921569 C23.844,7.22647059 23.336,7.40882353 22.843,7.63823529 C22.381,7.85196078 21.933,8.10490196 21.501,8.40196078 C21.475,8.41764706 21.45,8.43529412 21.426,8.45294118 C20.4,9.16764706 20.158,10.5607843 20.887,11.5666667 C21.276,12.1029412 21.862,12.4196078 22.479,12.4901961 L22.481,12.4901961 C22.588,12.5039216 22.696,12.5088235 22.803,12.504902 L22.812,12.504902 C22.821,12.5068627 22.831,12.5068627 22.84,12.5068627 C24.648,12.5068627 26.194,11.4029412 26.811,9.84313725 C27,9.37352941 27.102,8.86176471 27.102,8.32745098 L27.102,4.43627451 C27.102,4.27647059 26.971,4.14803922 26.808,4.14803922 L22.825,4.14803922 C20.973,4.15392157 19.244,4.68137255 17.786,5.5872549 C16.329,6.49411765 15.141,7.77843137 14.368,9.3 C14.332,8.99117647 14.314,8.67745098 14.314,8.35882353 C14.314,7.01176471 14.639,5.73921569 15.216,4.61176471 C16.617,1.87843137 19.504,0 22.84,0 C23.454,0 24.052,0.0637254902 24.629,0.184313725 C24.803,0.232352941 24.978,0.275490196 25.156,0.312745098 C25.162,0.314705882 25.168,0.315686275 25.174,0.317647059 C25.799,0.450980392 26.442,0.535294118 27.102,0.56372549 L27.108,0.56372549 C27.416,0.579411765 27.726,0.562745098 28.031,0.51372549 L30.813,0.0735294118 Z" id="Fill-1" fill="#1C63FF"></path>
                        <path d="M71.0175,8.97284314 C68.5245,7.00715686 64.8905,6.99735294 62.3845,8.94735294 C60.8475,10.142451 59.9865,11.8012745 59.7865,13.5208824 C59.7565,13.7797059 59.7355,14.0395098 59.7355,14.2993137 L59.7355,26.9218627 C59.7355,27.3522549 60.0915,27.7002941 60.5305,27.7002941 L62.5155,27.7002941 C62.9535,27.7002941 63.3095,27.3522549 63.3095,26.9218627 L63.3095,20.2483333 L63.3095,14.2993137 C63.3095,14.0306863 63.3455,13.7708824 63.4075,13.5208824 C63.7875,11.9846078 65.2605,10.8620588 66.9715,11.0022549 C68.6545,11.1395098 70.0085,12.5463725 70.0575,14.2012745 C70.1135,16.069902 68.5785,17.6081373 66.6845,17.6081373 C66.0635,17.6081373 65.4815,17.442451 64.9815,17.1542157 C64.5925,16.9297059 64.1035,17.2297059 64.1035,17.6708824 L64.1035,20.0689216 C64.1035,20.415 64.3365,20.719902 64.6745,20.819902 C67.0465,21.519902 69.7235,20.9532353 71.5975,19.1159804 C74.4915,16.2777451 74.2985,11.5591176 71.0175,8.97284314" id="Fill-3" fill="#1C63FF"></path>
                        <path d="M80.1736,24.1973529 C78.3126,24.1973529 76.7986,22.7130392 76.7986,20.8885294 C76.7986,19.0640196 78.3126,17.5797059 80.1736,17.5797059 C82.0346,17.5797059 83.5486,19.0640196 83.5486,20.8885294 C83.5486,22.7130392 82.0346,24.1973529 80.1736,24.1973529 M80.2846,14.0777451 C76.1506,14.0140196 72.8266,17.492451 73.2646,21.6189216 C73.5876,24.6679412 76.0316,27.1767647 79.1246,27.6248039 C80.7416,27.8581373 82.2676,27.5404902 83.5486,26.8404902 L83.5486,26.9218627 C83.5486,27.3522549 83.9036,27.7002941 84.3426,27.7002941 L86.3276,27.7002941 C86.7666,27.7002941 87.1216,27.3522549 87.1216,26.9218627 L87.1216,21.0728431 C87.1216,17.3826471 84.0476,14.1355882 80.2846,14.0777451" id="Fill-5" fill="#1C63FF"></path>
                        <path d="M36.5094,24.1973529 C34.6484,24.1973529 33.1344,22.7130392 33.1344,20.8885294 C33.1344,19.0640196 34.6484,17.5797059 36.5094,17.5797059 C38.3704,17.5797059 39.8844,19.0640196 39.8844,20.8885294 C39.8844,22.7130392 38.3704,24.1973529 36.5094,24.1973529 M43.4574,20.8885294 C43.4574,16.8708824 39.9094,13.6659804 35.7184,14.119902 C32.5324,14.465 29.9574,16.9895098 29.6054,20.1130392 C29.1424,24.2228431 32.4114,27.7002941 36.5094,27.7002941 C37.7354,27.7002941 38.8844,27.3865686 39.8844,26.8404902 L39.8844,26.9218627 C39.8844,27.3522549 40.2394,27.7002941 40.6784,27.7002941 L42.6634,27.7002941 C43.1024,27.7002941 43.4574,27.3522549 43.4574,26.9218627 L43.4574,21.0836275 L43.4474,21.0836275 C43.4494,21.0179412 43.4574,20.9542157 43.4574,20.8885294" id="Fill-7" fill="#1C63FF"></path>
                        <g transform="translate(86.7249, 14.0768)">
                            <mask id="mask-2" fill="white">
                                <use xlink:href="#path-1"></use>
                            </mask>
                            <g id="Clip-10"></g>
                            <path d="M12.4796772,0 L10.6446772,0 C10.3316772,0 10.0466772,0.181372549 9.91967722,0.461764706 L6.81867722,7.29019608 C6.74867722,7.44411765 6.52567722,7.44411765 6.45567722,7.29019608 L3.35467722,0.461764706 C3.22767722,0.181372549 2.94367722,0 2.62967722,0 L0.79467722,0 C0.21967722,0 -0.16432278,0.580392157 0.0696772201,1.09509804 L4.81467722,11.5441176 C4.83767722,11.595098 4.83767722,11.6519608 4.81467722,11.7029412 L2.84867722,16.0323529 C2.61467722,16.5470588 2.99867722,17.127451 3.57367722,17.127451 L5.40867722,17.127451 C5.72267722,17.127451 6.00667722,16.9460784 6.13467722,16.6647059 L13.2046772,1.09509804 C13.4386772,0.580392157 13.0546772,0 12.4796772,0" id="Fill-9" fill="#1C63FF" mask="url(#mask-2)"></path>
                        </g>
                        <path d="M55.0839,20.8887255 C55.0839,22.7887255 53.4429,24.3191176 51.4779,24.1897059 C49.6859,24.0720588 48.3339,22.5318627 48.3339,20.7720588 L48.3339,14.8553922 C48.3339,14.425 47.9789,14.0769608 47.5399,14.0769608 L45.5549,14.0769608 C45.1169,14.0769608 44.7609,14.425 44.7609,14.8553922 L44.7609,20.7102941 C44.7609,24.5279412 47.9479,27.7710784 51.8419,27.6995098 C55.6179,27.629902 58.6569,24.6073529 58.6569,20.8887255 L58.6569,14.8553922 C58.6569,14.425 58.3019,14.0769608 57.8629,14.0769608 L55.8779,14.0769608 C55.4399,14.0769608 55.0839,14.425 55.0839,14.8553922 L55.0839,20.8887255 Z" id="Fill-11" fill="#1C63FF"></path>
                    </g>
                </g>
            </g>
        </g>
    </g>
</svg>