<?xml version="1.0" encoding="UTF-8"?>
<svg width="30px" height="30px" viewBox="0 0 30 30" version="1.1" xmlns="http://www.w3.org/2000/svg" xmlns:xlink="http://www.w3.org/1999/xlink">
    <title>充值</title>
    <g id="页面-1" stroke="none" stroke-width="1" fill="none" fill-rule="evenodd">
        <g id="充值" transform="translate(15, 15) rotate(-90) translate(-15, -15)">
            <path d="M4.14285714,9.78887213 C4.53067829,5.46302741 6.105428,3.89219994 12.3692291,3.89219994 C20.7142857,3.89219994 20.7142857,6.68345329 20.7142857,15.0692846 C20.7142857,23.4551159 20.7142857,26.2463692 12.3692291,26.2463692 C6.105428,26.2463692 4.53067829,24.6755418 4.14285714,20.349697" id="Stroke-4" fill="#3275F4" transform="translate(12.4286, 15.0693) scale(-1, 1) rotate(-360) translate(-12.4286, -15.0693)"></path>
            <path d="M13.1752796,13.6110959 L13.2917617,13.6199079 L22.3143099,14.8282445 C22.8617075,14.9015543 23.2460316,15.404737 23.1727219,15.9521346 C23.0994122,16.4995322 22.5962295,16.8838563 22.0488319,16.8105466 L13.0262837,15.60221 C12.4788861,15.5289002 12.094562,15.0257175 12.1678717,14.4783199 C12.2411814,13.9309223 12.7443642,13.5465982 13.2917617,13.6199079 L13.1752796,13.6110959 Z" id="Stroke-1" fill="#FFFFFF" fill-rule="nonzero"></path>
            <path d="M20.5166162,15.5698873 C20.6544158,15.0350698 21.1996797,14.7132233 21.7344972,14.8510229 L26.2335233,16.0102296 C26.7683408,16.1480292 27.0901874,16.6932931 26.9523878,17.2281105 C26.8145882,17.762928 26.2693243,18.0847746 25.7345068,17.946975 L21.2354807,16.7877682 C20.7006632,16.6499686 20.3788166,16.1047048 20.5166162,15.5698873 Z" id="Stroke-1备份" fill="#3275F4" fill-rule="nonzero"></path>
            <path d="M11.035082,10.9860113 C11.4248036,10.5946859 12.0579672,10.5933857 12.4492926,10.9831073 L15.9872927,14.5066073 C16.379755,14.897461 16.379755,15.532868 15.9872927,15.9237218 L12.4492926,19.4472217 C12.0579672,19.8369433 11.4248036,19.8356432 11.035082,19.4443178 C10.6453604,19.0529924 10.6466606,18.4198288 11.037986,18.0301072 L13.8636393,15.2146646 L11.037986,12.4002218 C10.6767625,12.0404789 10.6478683,11.4733059 10.952087,11.0803892 L11.035082,10.9860113 Z" id="Stroke-3" fill="#FFFFFF" fill-rule="nonzero" transform="translate(13.5126, 15.2152) scale(-1, 1) translate(-13.5126, -15.2152)"></path>
        </g>
    </g>
</svg>