<?xml version="1.0" encoding="UTF-8"?>
<svg width="29px" height="29px" viewBox="0 0 29 29" version="1.1" xmlns="http://www.w3.org/2000/svg" xmlns:xlink="http://www.w3.org/1999/xlink">
    <title>转换</title>
    <defs>
        <rect id="path-1" x="0" y="0" width="29" height="29"></rect>
    </defs>
    <g id="页面-1" stroke="none" stroke-width="1" fill="none" fill-rule="evenodd">
        <g id="转换" transform="translate(14.5, 14.5) rotate(-90) translate(-14.5, -14.5)">
            <mask id="mask-2" fill="white">
                <use xlink:href="#path-1"></use>
            </mask>
            <g id="矩形"></g>
            <path d="M1.91909219,9.1699079 C2.40386862,4.35970276 4.37230576,2.61299133 12.2020572,2.61299133 C22.6333779,2.61299133 22.6333779,5.71677848 22.6333779,15.0415628 C22.6333779,24.366347 22.6333779,27.4701342 12.2020572,27.4701342 C4.37230576,27.4701342 2.40386862,25.7234228 1.91909219,20.9132176" id="Stroke-4" fill="#3275F4" mask="url(#mask-2)" transform="translate(12.2762, 15.0416) scale(-1, 1) rotate(-360) translate(-12.2762, -15.0416)"></path>
            <path d="M13.5191194,7.67462666 C13.9332219,7.66503776 14.2766917,7.99296088 14.2862806,8.40706343 C14.3355488,10.5347406 14.4677804,12.2581351 14.6809922,13.5722049 C14.896651,14.901356 15.2710242,16.6382145 15.8039392,18.7790547 C15.9039952,19.181002 15.6592638,19.5879561 15.2573164,19.6880121 C14.8553691,19.788068 14.448415,19.5433366 14.3483591,19.1413893 C13.8062262,16.9635187 13.4236158,15.1884451 13.2003552,13.8124427 C12.9746477,12.421359 12.8374178,10.6328215 12.7866826,8.4417879 C12.7770937,8.02768534 13.1050168,7.68421555 13.5191194,7.67462666 Z" id="Stroke-1" fill="#FFFFFF" fill-rule="nonzero" mask="url(#mask-2)" transform="translate(14.3064, 13.6924) scale(-1, -1) rotate(-1) translate(-14.3064, -13.6924)"></path>
            <path d="M8.25463803,11.318659 C8.66188572,11.2430138 9.05334775,11.5118307 9.12899296,11.9190784 C9.52935266,14.074477 9.76342015,15.7347573 9.83073212,16.9099533 C9.89798099,18.0840478 9.85766943,19.8032708 9.71135883,22.0784559 C9.68477686,22.4918157 9.32813363,22.805361 8.91477389,22.778779 C8.50141415,22.7521971 8.18786882,22.3955538 8.2144508,21.9821941 C8.35719189,19.7625162 8.39625003,18.0967497 8.33318659,16.9957286 C8.27018624,15.895809 8.04401802,14.2915594 7.65421862,12.1930139 C7.57857342,11.7857662 7.84739035,11.3943042 8.25463803,11.318659 Z" id="Stroke-1备份-2" fill="#FFFFFF" fill-rule="nonzero" mask="url(#mask-2)" transform="translate(8.7519, 17.0431) scale(-1, -1) rotate(-1) translate(-8.7519, -17.0431)"></path>
            <path d="M13.4770124,15.833555 C13.7654533,15.5362763 14.240273,15.5291118 14.5375518,15.8175528 L16.8300808,18.0419271 C17.1337613,18.3365796 17.1337168,18.8239674 16.8299824,19.1185643 L14.561233,21.3190612 C14.2639015,21.6074479 13.7890832,21.6001966 13.5006965,21.3028651 C13.2123099,21.0055336 13.2195611,20.5307153 13.5168926,20.2423286 L15.2302832,18.5798236 L13.4930146,16.8940945 C13.2227612,16.6318754 13.1922716,16.2156244 13.4056716,15.9187595 L13.4770124,15.833555 Z" id="Stroke-3" fill="#FFFFFF" fill-rule="nonzero" mask="url(#mask-2)" transform="translate(15.1615, 18.5683) rotate(80) translate(-15.1615, -18.5683)"></path>
            <path d="M10.1094897,11.2721782 C10.3359078,10.9253241 10.8006367,10.8276914 11.1474907,11.0541095 C11.4943448,11.2805275 11.5919775,11.7452564 11.3655594,12.0921105 L9.61948826,14.7669498 C9.38819442,15.1212732 8.90975278,15.2142275 8.5626132,14.9722853 L5.96964782,13.1650939 C5.62982613,12.928252 5.54634451,12.4607737 5.78318642,12.1209521 C6.02002833,11.7811304 6.48750654,11.6976487 6.82732824,11.9344906 L8.78548803,13.2991443 L10.1094897,11.2721782 Z" id="Stroke-3备份" fill="#FFFFFF" fill-rule="nonzero" mask="url(#mask-2)" transform="translate(8.568, 13.0196) scale(-1, -1) rotate(-1) translate(-8.568, -13.0196)"></path>
        </g>
    </g>
</svg>