<?xml version="1.0" encoding="UTF-8"?>
<svg width="30px" height="30px" viewBox="0 0 30 30" version="1.1" xmlns="http://www.w3.org/2000/svg" xmlns:xlink="http://www.w3.org/1999/xlink">
    <title>闪兑</title>
    <defs>
        <rect id="path-1" x="0" y="0" width="30" height="30"></rect>
    </defs>
    <g id="页面-1" stroke="none" stroke-width="1" fill="none" fill-rule="evenodd">
        <g id="闪兑">
            <mask id="mask-2" fill="white">
                <use xlink:href="#path-1"></use>
            </mask>
            <g id="矩形"></g>
            <path d="M10.7798113,26.9433036 C12.4722499,28.4412372 15.6656149,26.1770323 18.0071967,24.4021471 C20.3487785,22.627262 19.9755131,22.6449078 22.1602249,20.3207235 C23.297089,19.1112817 24.5984497,17.2789084 26.0643068,14.8236036 C26.3952,14.451984 26.2890048,13.3715729 26.0643068,12.9382783 C25.8396089,12.5049837 25.0332629,12.2303111 24.4349866,12.2303111 C23.8367103,12.2303111 21.710286,13.0422538 19.2441559,12.2303111 C18.1299248,11.7219445 19.6172531,8.7443748 20.0709839,7.63895731 C20.5247146,6.53353982 20.5247146,5.51642431 19.711647,5.18061378 C18.8985794,4.84480326 17.5981849,4.75720661 16.6825967,5.18061378 C15.7670086,5.60402095 13.7058531,6.58616079 11.7283794,8.46537058 C9.51873083,10.5652181 9.06652451,11.4075894 7.2089604,14.0861608 C5.35139629,16.7647322 5.2523068,17.9804299 5.68494252,18.7387808 C6.11757823,19.4971317 7.2089604,19.1512831 7.99833298,19.1512831 C10.0851981,18.8943959 11.5685472,19.1252186 12.4483804,19.8437512 C13.0575214,21.1359156 9.08736846,25.4453701 10.7798113,26.9433036 Z" id="路径" fill="#3275F4" mask="url(#mask-2)"></path>
            <line x1="16.6825967" y1="17.1475597" x2="15.5602373" y2="14.0861608" id="Stroke-1备份" stroke="#FFFFFF" stroke-width="1.5" stroke-linecap="round" stroke-linejoin="round" mask="url(#mask-2)"></line>
        </g>
    </g>
</svg>