<?xml version="1.0" encoding="UTF-8"?>
<svg width="18px" height="18px" viewBox="0 0 18 18" version="1.1" xmlns="http://www.w3.org/2000/svg" xmlns:xlink="http://www.w3.org/1999/xlink">
    <title>see</title>
    <g id="see" stroke="none" stroke-width="1" fill="none" fill-rule="evenodd">
        <path d="M8.99966561,4 C3.77183469,4 1,9.5085465 1,9.5085465 C1,9.5085465 3.99284136,14.404746 8.99966561,14.404746 C14.0068243,14.404746 17,9.5085465 17,9.5085465 C17,9.5085465 14.5410612,4 8.99966561,4 Z M9.00461452,12.3366075 C7.41053092,12.3366075 6.11819699,10.9354075 6.11819699,9.20725258 C6.11819699,7.47912241 7.41053092,6.07789763 9.00461452,6.07789763 C10.5986981,6.07789763 11.8909652,7.47912241 11.8909652,9.20725258 C11.8909652,10.9354075 10.598609,12.3366075 9.00461452,12.3366075 Z M9,7.93123667 C8.30207013,7.93123667 7.73631178,8.55472981 7.73631178,9.32374266 C7.73631178,10.0926564 8.30207013,10.7162486 9,10.7162486 C9.69795217,10.7162486 10.2637105,10.0926564 10.2637105,9.32374266 C10.2637105,8.55472981 9.69795217,7.93123667 9,7.93123667 Z" id="Fill-1" fill="#B8B8B8"></path>
    </g>
</svg>