<?xml version="1.0" encoding="UTF-8"?>
<svg width="18px" height="18px" viewBox="0 0 18 18" version="1.1" xmlns="http://www.w3.org/2000/svg" xmlns:xlink="http://www.w3.org/1999/xlink">
    <title>see no</title>
    <g id="see-no" stroke="none" stroke-width="1" fill="none" fill-rule="evenodd">
        <g id="编组" transform="translate(1, 3)" fill="#B8B8B8">
            <path d="M7.99543735,1.29924329 C9.31630723,1.29924329 10.4620398,1.60004985 11.4410794,2.05825999 L9.857,4.00224329 L9.92641089,4.06387279 C10.2407888,4.35757275 10.4929897,4.72207505 10.6599126,5.13329742 L10.705,5.25524329 L12.7113628,2.79336057 C14.8873834,4.30983769 15.9293759,6.45378004 15.992694,6.5869815 C15.9957717,6.59350658 13.002596,11.2992433 7.99543735,11.2992433 C7.28643959,11.2992433 6.6178269,11.2048823 5.99237878,11.0428844 L7.448,9.25524329 L7.33857005,9.23211512 C6.91352622,9.12820114 6.52466702,8.92639335 6.19509645,8.65077235 L6.123,8.58624329 L4.54615191,10.5244061 C1.73107678,9.22760525 0.0934721498,6.74436117 4.841294e-06,6.60008153 C-0.00422826104,6.59350658 2.76760643,1.29924329 7.99543735,1.29924329 Z M10.705,5.25524329 L7.448,9.25524329 L7.49961251,9.26644706 C7.60804476,9.28621312 7.71855804,9.2996727 7.83079137,9.30644951 L8.00038626,9.31155564 C9.59438069,9.31155564 10.8867369,7.96486251 10.8867369,6.30393303 C10.8867369,5.94802467 10.8273981,5.60654335 10.7184662,5.28964878 L10.705,5.25524329 Z M8.00038626,3.29631042 C6.40630266,3.29631042 5.11396873,4.64302736 5.11396873,6.30393303 C5.11396873,7.19371668 5.48485538,7.9933177 6.07433177,8.54400152 L6.123,8.58624329 L9.857,4.00224329 L9.80564975,3.95710121 C9.35250309,3.57811948 8.78726238,3.33868977 8.1699809,3.30141664 Z" id="Fill-1"></path>
            <path d="M13.196888,0 L14.2461405,0.849556495 L4.29539295,13 L3.24614046,12.1504435 L7.13755356,7.39821004 C6.88818758,7.15372252 6.73208352,6.80407575 6.73208352,6.41589163 C6.73208352,5.67679349 7.29784187,5.07755432 7.99577174,5.07755432 C8.29797783,5.07755432 8.57540022,5.18989972 8.79284345,5.37729945 L7.13755356,7.39821004 C7.3629164,7.619164 7.6644511,7.75422894 7.99577174,7.75422894 C8.69372391,7.75422894 9.25948225,7.15489455 9.25948225,6.41589163 C9.25948225,5.99681536 9.07759055,5.62270385 8.79284345,5.37729945 L13.196888,0 Z" id="路径-5" fill-rule="nonzero"></path>
        </g>
    </g>
</svg>