<?xml version="1.0" encoding="utf-8" ?>
<svg xmlns="http://www.w3.org/2000/svg" xmlns:xlink="http://www.w3.org/1999/xlink" width="15" height="15">
	<path fill="#363853" transform="translate(0 0.246155)" d="M8.6602535 0.73850834C9.6449318 -0.24616945 11.24141 -0.24616945 12.226088 0.73850834L13.261492 1.7739124C14.246169 2.7585902 14.246169 4.3550682 13.261492 5.339746L4.9108677 13.69037C4.712615 13.888623 4.4437265 14 4.1633549 14L1.0571429 14C0.47329897 14 0 13.526701 0 12.942857L0 9.8366451C0 9.5562735 0.11137723 9.287385 0.30962998 9.0891323L8.6602535 0.73850834ZM11.518981 1.4456152C10.924828 0.85146165 9.9615145 0.85146165 9.3673611 1.4456152L1.0167367 9.7962389C1.0060204 9.8069553 1 9.8214903 1 9.8366451L1 12.942857C1 12.974417 1.0255837 13 1.0571429 13L4.1633549 13C4.1785102 13 4.1930447 12.993979 4.2037611 12.983263L12.554385 4.6326394C13.148539 4.038486 13.148539 3.0751727 12.554385 2.4810193L11.518981 1.4456152ZM8.1765394 2.4155669L11.185334 5.4243298L11.583352 5.8223429L11.185345 6.220366L4.570847 12.835123L4.4059768 13L1 13L1 9.5941153L1.1648105 9.4292583L7.7785125 2.8137057L8.1765394 2.4155669ZM7.4889998 4.8979998L2.1140001 10.273L2.1140001 11.885L3.7260001 11.885L9.1009998 6.5100002L7.4889998 4.8979998ZM9.7009296 0.8832643C10.321156 0.26289457 11.326741 0.26289457 11.946968 0.8832643L13.115592 2.0521586C13.735819 2.6725283 13.735819 3.6783464 13.115554 4.2987547L10.996404 6.4179869L10.597399 6.0188899L7.5807571 3.0015519L7.9802475 2.6024165L9.7009296 0.8832643ZM10.731062 2.2335341C10.572064 2.0745363 10.314278 2.0745363 10.155279 2.2335341L8.9840002 3.4030001L10.596 5.0149999L11.766466 3.8447204C11.905589 3.7055972 11.922979 3.490839 11.818637 3.3328071L11.766466 3.2689381L10.731062 2.2335341Z"/>
</svg>
