<?xml version="1.0" encoding="UTF-8"?>
<svg width="22px" height="22px" viewBox="0 0 22 22" version="1.1" xmlns="http://www.w3.org/2000/svg" xmlns:xlink="http://www.w3.org/1999/xlink">
    <title>Shape</title>
    <g id="auPay" stroke="none" stroke-width="1" fill="none" fill-rule="evenodd">
        <g id="转账" transform="translate(-30, -144)" fill="#F3F3F3" fill-rule="nonzero">
            <g id="Shape" transform="translate(21, 135)">
                <path d="M28.0801481,10.202833 L29.7971641,11.919849 C31.1062563,13.2289412 31.1062563,15.3513991 29.7971641,16.6604913 L15.94928,30.5083754 C15.7760127,30.6816427 15.5410118,30.7789833 15.2959748,30.7789833 L10.1449268,30.7789833 C9.63466376,30.7789833 9.22101383,30.3653334 9.22101383,29.8550703 L9.22101383,24.7040223 C9.22101383,24.4589853 9.31835438,24.2239844 9.49162167,24.0507172 L23.3395058,10.202833 C24.6485981,8.89374077 26.7710559,8.89374077 28.0801481,10.202833 Z M20.8110138,15.3430138 L11.0688398,25.0867196 L11.0688398,28.9311573 L14.9132776,28.9311573 L24.6560138,19.1870138 L20.8110138,15.3430138 Z M24.6461161,11.5094433 L22.1180138,14.0360138 L25.9630138,17.8810138 L28.4905539,15.353881 C29.0780252,14.7664097 29.0780252,13.8139306 28.4905539,13.2264593 L26.7735379,11.5094433 C26.1860666,10.921972 25.2335874,10.921972 24.6461161,11.5094433 Z"></path>
            </g>
        </g>
    </g>
</svg>