<?xml version="1.0" encoding="UTF-8"?>
<svg width="16px" height="16px" viewBox="0 0 16 16" version="1.1" xmlns="http://www.w3.org/2000/svg" xmlns:xlink="http://www.w3.org/1999/xlink">
    <title>编组 7</title>
    <g id="auPay" stroke="none" stroke-width="1" fill="none" fill-rule="evenodd">
        <g id="地址管理" transform="translate(-51, -222)">
            <g id="编组备份" transform="translate(19, 190)">
                <g id="编组-7" transform="translate(32, 32)">
                    <rect id="矩形" fill="#5686E1" x="0" y="0" width="16" height="16" rx="4"></rect>
                    <g id="peo备份" transform="translate(3, 2)" stroke="#FFFFFF" stroke-width="1.5">
                        <path d="M7.5,6.86111111 C7.98324916,6.86111111 8.42074916,7.05698653 8.73743687,7.37367424 C9.05412458,7.69036196 9.25,8.12786196 9.25,8.61111111 C9.25,9.09436027 9.05412458,9.53186027 8.73743687,9.84854798 C8.42074916,10.1652357 7.98324916,10.3611111 7.5,10.3611111 L2.5,10.3611111 C2.01675084,10.3611111 1.57925084,10.1652357 1.26256313,9.84854798 C0.945875422,9.53186027 0.75,9.09436027 0.75,8.61111111 C0.75,8.12786196 0.945875422,7.69036196 1.26256313,7.37367424 C1.57925084,7.05698653 2.01675084,6.86111111 2.5,6.86111111 Z M5,0.75 C5.55995537,0.75 6.06689982,0.976966759 6.43385542,1.34392236 C6.80081102,1.71087796 7.02777778,2.21782241 7.02777778,2.77777778 C7.02777778,3.33773315 6.80081102,3.84467759 6.43385542,4.2116332 C6.06689982,4.5785888 5.55995537,4.80555556 5,4.80555556 C4.44004463,4.80555556 3.93310018,4.5785888 3.56614458,4.2116332 C3.19918898,3.84467759 2.97222222,3.33773315 2.97222222,2.77777778 C2.97222222,2.21782241 3.19918898,1.71087796 3.56614458,1.34392236 C3.93310018,0.976966759 4.44004463,0.75 5,0.75 Z" id="peo"></path>
                    </g>
                </g>
            </g>
        </g>
    </g>
</svg>