<?xml version="1.0" encoding="UTF-8"?>
<svg width="24px" height="24px" viewBox="0 0 24 24" version="1.1" xmlns="http://www.w3.org/2000/svg" xmlns:xlink="http://www.w3.org/1999/xlink">
    <title>add</title>
    <g id="add" stroke="none" stroke-width="1" fill="none" fill-rule="evenodd">
        <g id="编组" transform="translate(3, 3)" fill-rule="nonzero">
            <path d="M17.3533601,0.188594078 C17.528828,0.28204597 17.6724595,0.425677409 17.7659114,0.601145325 C18.7300796,2.4114949 15.7860189,13.1042685 13.7236938,16.677118 C13.6439097,16.8153282 13.5613251,16.9422016 13.4753206,17.0579809 C12.4841636,18.3922771 11.1309112,18.1562968 10.1968714,16.8843047 C9.64141515,16.1278743 9.13647619,14.9590488 8.65155313,13.4574892 C8.37539831,12.6023784 8.12340484,11.6910606 7.89978161,10.7804003 C7.87373034,10.6743118 7.8486847,10.5707254 7.82466806,10.4699114 L7.75951696,10.1939885 L7.484594,10.1298374 L7.1741051,10.0547238 C6.26344481,9.8311006 5.35212703,9.57910713 4.49701626,9.30295231 C2.99545662,8.81802924 1.82663109,8.31309029 1.07020075,7.757634 C-0.201791369,6.82359425 -0.437771693,5.47034183 0.89652456,4.47918487 C1.01230388,4.39318037 1.13917723,4.31059574 1.2773874,4.23081164 C4.85023691,2.16848649 15.5430105,-0.775574172 17.3533601,0.188594078 Z M16.038517,1.91498847 L15.9867414,1.9174419 C15.0452965,1.95559449 12.7723886,2.37934062 10.1918388,3.08984803 C6.89709035,3.99699708 3.65351255,5.16853359 2.27724924,5.96294221 C2.20345778,6.00553954 2.14076987,6.04634447 2.08914578,6.08469247 L2.13351696,6.05198847 L2.18064697,6.08992833 L2.25395433,6.1455771 C2.79187392,6.5405782 3.80046987,6.97629711 5.11165204,7.39973848 C5.91633525,7.65960791 6.78336816,7.89935593 7.65105857,8.1124274 C7.95521567,8.18711672 8.237433,8.25305857 8.49019177,8.30953796 C8.64046405,8.34311656 8.74646755,8.36586574 8.80072899,8.37709076 C9.19136293,8.45790094 9.49660449,8.7631425 9.57741467,9.15377644 C9.5886397,9.20803788 9.61138887,9.31404138 9.64496748,9.46431367 C9.70144686,9.71707244 9.76738872,9.99928976 9.84207803,10.3034469 C10.0551495,11.1711373 10.2948975,12.0381702 10.554767,12.8428534 C10.9782083,14.1540356 11.4139272,15.1626315 11.8089283,15.7005511 C11.8286424,15.7273981 11.847259,15.7517891 11.8645771,15.7738585 L11.901517,15.8199885 L11.9089553,15.8100462 C11.9222594,15.790378 11.9358118,15.7694791 11.949588,15.7473479 L11.9915632,15.6772562 C12.7859718,14.3009929 13.9575084,11.0574151 14.8646574,7.76266659 C15.5751648,5.18211687 15.9989109,2.90920894 16.0370635,1.96776401 L16.038517,1.91498847 Z" id="Stroke-1" fill="#363853"></path>
            <path d="M10.8132395,4.55252188 C11.2128669,4.44356856 11.625153,4.67920646 11.7341064,5.07883384 L12.7341064,8.74671104 C12.8430597,9.14633843 12.6074218,9.55862455 12.2077944,9.66757787 C11.808167,9.77653119 11.3958809,9.5408933 11.2869276,9.14126591 L10.2869276,5.47338871 C10.1779742,5.07376132 10.4136121,4.6614752 10.8132395,4.55252188 Z" id="Stroke-3" fill="#5686E1"></path>
        </g>
    </g>
</svg>