<?xml version="1.0" encoding="UTF-8"?>
<svg width="24px" height="24px" viewBox="0 0 24 24" version="1.1" xmlns="http://www.w3.org/2000/svg" xmlns:xlink="http://www.w3.org/1999/xlink">
    <title>Address book</title>
    <g id="Address-book" stroke="none" stroke-width="1" fill="none" fill-rule="evenodd">
        <g id="编组" transform="translate(3, 2)">
            <path d="M3.32480604,17 C3.674124,16.4604967 4.24397828,16.0967636 5.19676379,15.7438177 C5.33290732,15.6933852 5.47528266,15.6433381 5.65763195,15.5812417 L6.12684266,15.4222257 C7.53865894,14.9382341 8.18196005,14.540408 8.43071706,13.6131975 C8.43080602,13.6224475 8.45582156,13.5385228 8.47856872,13.4330605 C8.58970383,12.9178065 8.55699554,12.3540704 8.27008498,11.808157 C8.12663996,11.5352198 7.92611582,11.2877712 7.66842372,11.0735806 C6.95157068,10.3938351 6.61459949,9.71351952 6.61459949,8.66924433 C6.61459949,6.87459945 7.94338392,5.58570848 9.51119228,5.58570848 C11.0592954,5.58570848 12.4077851,6.90570035 12.4077851,8.66924433 C12.4077851,9.71452317 12.0628394,10.4132242 11.30996,11.0959089 C11.0426592,11.3193936 10.8290095,11.611328 10.6899936,11.9366606 C10.4762815,12.436801 10.4562733,12.944944 10.5448216,13.4138399 C10.5638046,13.5143619 10.5845741,13.5941579 10.602557,13.6501798 C10.8872651,14.592142 11.5488944,14.9944427 13.0186573,15.4921134 L13.4246871,15.6285452 C13.5812195,15.6813941 13.7046257,15.7241402 13.8225236,15.7667306 C14.7806749,16.1128608 15.3392307,16.4581091 15.6871582,16.979625 L17,16.0973822 C16.4212868,15.2299364 15.6048615,14.7252968 14.3576055,14.2747281 C14.2277099,14.2278036 14.0945771,14.1816883 13.9284436,14.1255979 L13.5237315,13.9896116 C12.5396181,13.6563848 12.191405,13.4446554 12.1104148,13.1768103 C12.1076357,13.167778 12.103284,13.1510591 12.0971459,13.1185552 C12.062106,12.9330061 12.0700973,12.7300539 12.1420545,12.5616557 C12.1844959,12.4623321 12.2492097,12.3739061 12.3462043,12.2925333 C13.43757,11.303712 13.9877448,10.1893115 13.9877448,8.66924433 C13.9877448,6.02094582 11.923168,4 9.51119228,4 C7.08262942,4 5.03463978,5.98650383 5.03463978,8.66924433 C5.03463978,10.1848161 5.57051042,11.2666923 6.62295344,12.2614123 C6.75837211,12.3760593 6.8263684,12.4599673 6.87261685,12.5479656 C6.96213269,12.7182901 6.97358997,12.9157594 6.93437622,13.0975656 C6.92819849,13.1262073 6.92428916,13.1393227 6.92695914,13.1320758 C6.84899709,13.4100088 6.52609618,13.6096951 5.61614293,13.9216406 L5.1499758,14.0796166 C4.95553986,14.145829 4.80097051,14.2001625 4.64968652,14.2562035 C3.40663359,14.7166749 2.57544497,15.2472155 2,16.1359601 L3.32480604,17 Z" id="Shape" fill="#5686E1" fill-rule="nonzero"></path>
            <rect id="矩形备份-50" stroke="#363853" stroke-width="2" x="1" y="1" width="17" height="18" rx="8"></rect>
        </g>
    </g>
</svg>