<?xml version="1.0" encoding="UTF-8"?>
<svg width="24px" height="24px" viewBox="0 0 24 24" version="1.1" xmlns="http://www.w3.org/2000/svg" xmlns:xlink="http://www.w3.org/1999/xlink">
    <title>aupayLOGO2</title>
    <g id="aupayLOGO2" stroke="none" stroke-width="1" fill="none" fill-rule="evenodd">
        <path d="M19.95426,5 C19.7705502,5.55125 19.6715718,6.1396875 19.6715718,6.75 C19.6715718,6.86739583 19.675321,6.98333333 19.6828194,7.09854167 C19.7015653,7.4084375 19.7465554,7.71177083 19.8147905,8.00635417 C19.8313619,8.07752083 19.8487581,8.1486875 19.8684038,8.219125 C19.9157934,8.38894792 19.9473615,8.56219792 19.9703815,8.73676042 C19.9708314,8.73996875 19.9712063,8.74317708 19.9715062,8.74645833 C19.9827538,8.83833333 19.9902521,8.93020833 19.9947511,9.02354167 C19.9985003,9.09208333 20,9.160625 20,9.22916667 C20,9.38010417 19.9917518,9.52958333 19.9760052,9.676875 C19.9745056,9.68854167 19.9730059,9.70020833 19.9715062,9.711875 C19.9505108,9.89416667 19.917518,10.0728125 19.8732777,10.2470833 C19.7952948,10.5540625 19.6828194,10.8486458 19.5396007,11.125 C18.8422533,12.4754167 17.4220639,13.413125 15.7724248,13.4554167 C15.7319336,13.4576042 15.6914425,13.4583333 15.6509514,13.4583333 C15.6299559,13.4583333 15.6089605,13.4583333 15.5879651,13.4576042 C14.646921,13.4452083 13.7786109,13.141875 13.0730153,12.6358333 C13.0370232,12.6095833 12.9906833,12.5833333 12.955441,12.5563542 L12.955441,15.9032292 L12.7776549,15.4939479 C12.6620302,15.227875 12.5265348,14.9696771 12.361346,14.7295625 C12.0173962,14.2299375 11.5776174,13.7979792 11.067204,13.4583333 L11.053707,13.4495833 C11.0117162,13.421875 10.9697254,13.3948958 10.9269847,13.3686458 C10.1831474,12.91 9.30134033,12.643125 8.35654701,12.6402083 L6.17452432,12.6402083 L6.17452432,14.7547917 C6.17452432,15.0253125 6.22701284,15.2841667 6.32299185,15.521875 C6.63792295,16.3108333 7.4267504,16.869375 8.34904865,16.869375 C8.35354766,16.869375 8.35879651,16.869375 8.36329553,16.8686458 C8.42253257,16.8708333 8.4772706,16.8679167 8.53200862,16.8613542 C8.84768957,16.825625 9.14687412,16.6652083 9.34483082,16.3939583 C9.71674946,15.885 9.59377636,15.1798958 9.07039085,14.8182292 C9.05764364,14.8094792 9.04489643,14.8007292 9.03214922,14.7927083 C8.81169744,14.6425 8.58299747,14.5141667 8.34754897,14.40625 C7.96438279,14.2297917 7.56472022,14.1080208 7.15980879,14.03875 C7.43349892,13.9928125 7.71543725,13.96875 8.00262443,13.96875 C8.92192333,13.96875 9.78198519,14.2122917 10.5198238,14.638125 C10.6600431,14.7176042 10.7965133,14.8051042 10.9269847,14.8991667 C10.9697254,14.9297917 11.0117162,14.9611458 11.053707,14.9932292 C11.1594339,15.0734375 11.2621614,15.1580208 11.3603899,15.2469792 C11.7495548,15.5955208 12.0802324,16.0045833 12.3374262,16.4588542 C12.7265911,17.1435417 12.9524417,17.9288542 12.955441,18.7652083 L12.955441,18.78125 L12.955441,19 L11.0379604,19 C11.067204,18.6988542 11.0657044,18.3969792 11.0342113,18.0980208 C10.998969,18.125 10.9629768,18.15125 10.9269847,18.1775 C10.2213891,18.6835417 9.35307901,18.986875 8.41203487,18.9992708 C8.39103946,19 8.37004405,19 8.34904865,19 C8.3085575,19 8.26806636,18.9992708 8.22757522,18.9970833 C6.57793608,18.9547917 5.15774674,18.0170833 4.46039929,16.6666667 C4.31718062,16.3903125 4.20470522,16.0957292 4.12672228,15.78875 C4.08248196,15.6144792 4.04948917,15.4358333 4.02849377,15.2535417 C4.0269941,15.241875 4.02549442,15.2302083 4.02399475,15.2185417 C4.0082482,15.07125 4,14.9217708 4,14.7708333 C4,14.7022917 4.00149967,14.63375 4.00524885,14.5652083 C4.00974787,14.471875 4.01724623,14.38 4.02849377,14.288125 C4.0287937,14.2848438 4.02916862,14.2816354 4.02954354,14.2785 C4.05241353,14.1056146 4.08300684,13.93375 4.13024651,13.7656042 C4.15049208,13.6935625 4.16826319,13.6207917 4.18520949,13.5480208 C4.25344456,13.2534375 4.29843472,12.9501042 4.31718062,12.6402083 C4.32467898,12.525 4.32842816,12.4090625 4.32842816,12.2916667 C4.32842816,11.6813542 4.22944981,11.0929167 4.04573999,10.5416667 L5.69837848,10.8011771 C5.85576905,10.8258958 6.01533415,10.8345 6.17452432,10.8267708 C6.51120067,10.8121875 6.83962883,10.7698958 7.15830912,10.7020833 C7.16130846,10.7013542 7.16430781,10.700625 7.16730715,10.6998958 C7.2580373,10.6809375 7.34726779,10.6590625 7.43649827,10.635 C7.73043397,10.57375 8.03561721,10.5416667 8.34904865,10.5416667 C9.49554785,10.5416667 10.5385697,10.9733333 11.3153998,11.6791667 C11.4083794,11.41375 11.5253538,11.1592708 11.6625738,10.9171875 C12.0104977,10.3025 12.4941419,9.77020833 13.0730153,9.3575 C13.2034867,9.2634375 13.3399569,9.1759375 13.4801762,9.09645833 C14.2180148,8.670625 15.0780767,8.42708333 15.9973756,8.42708333 C16.2845628,8.42708333 16.5590027,8.38114583 16.8326928,8.42708333 C16.4277814,8.49635417 16.0356172,8.688125 15.652451,8.86458333 C15.4170025,8.9725 15.1883026,9.10083333 14.9678508,9.25104167 C14.9551036,9.2590625 14.9423564,9.2678125 14.9296091,9.2765625 C14.4062236,9.63822917 14.2832505,10.3433333 14.6551692,10.8522917 C14.8531259,11.1235417 15.1523104,11.2839583 15.4672415,11.3196875 L15.4679914,11.3196875 C15.5227294,11.32625 15.5774674,11.3291667 15.6322055,11.3269792 C15.6412035,11.3277083 15.6464523,11.3277083 15.6509514,11.3277083 C16.5732496,11.3277083 17.362077,10.7691667 17.6770082,9.98020833 C17.7729872,9.7425 17.8254757,9.48364583 17.8254757,9.213125 L17.8254757,7.09854167 L15.643453,7.09854167 C14.6986597,7.10145833 13.8168526,7.36833333 13.0730153,7.82697917 C12.3299278,8.285625 11.7240604,8.9353125 11.3296466,9.7053125 C11.3109007,9.54927083 11.3019027,9.3903125 11.3019027,9.22916667 C11.3019027,8.54739583 11.4676165,7.90354167 11.762302,7.33333333 C12.4768957,5.95010417 13.9495735,5 15.6509514,5 C15.9643828,5 16.269566,5.03208333 16.5635017,5.09333333 C16.6527322,5.11739583 16.7419627,5.13927083 16.8326928,5.15822917 L16.8416909,5.16041667 C17.1603712,5.22822917 17.4887993,5.27052083 17.8254757,5.28510417 C17.9855657,5.29283333 18.1433311,5.284375 18.2989221,5.25994792 L19.95426,5 Z" id="形状结合" fill="#1C63FF"></path>
    </g>
</svg>