<?xml version="1.0" encoding="UTF-8"?>
<svg width="24px" height="24px" viewBox="0 0 24 24" version="1.1" xmlns="http://www.w3.org/2000/svg" xmlns:xlink="http://www.w3.org/1999/xlink">
    <title>Edit Square</title>
    <g id="Edit-Square" stroke="none" stroke-width="1" fill="none" fill-rule="evenodd">
        <g id="编组" transform="translate(2, 2)" fill-rule="nonzero">
            <path d="M10,0 C10.5522847,0 11,0.44771525 11,1 C11,1.55228475 10.5522847,2 10,2 C3.80277075,2 2,3.80277075 2,10 C2,16.1972293 3.80277075,18 10,18 C16.1972293,18 18,16.1972293 18,10 C18,9.44771525 18.4477153,9 19,9 C19.5522847,9 20,9.44771525 20,10 C20,17.3017987 17.3017987,20 10,20 C2.69820125,20 0,17.3017987 0,10 C0,2.69820125 2.69820125,0 10,0 Z" id="Stroke-1" fill="#363853"></path>
            <path d="M17.8172465,1.79404888 C19.2674456,2.98692609 19.4050723,5.08313793 18.1138623,6.43722315 C17.9123845,6.64844682 17.9123845,6.64844682 17.1064694,7.49333575 C16.0990686,8.54944686 16.0990686,8.54944686 14.8901612,9.81678235 C13.6514901,11.1153101 12.7039531,12.1085896 12.163147,12.675427 C11.6289594,13.2357025 10.9726261,13.6067808 10.2351493,13.8110087 C9.36180545,14.052862 8.46363153,14.0471025 7.61803815,13.8973566 C7.39468316,13.8578027 7.22329474,13.8165039 7.11529236,13.7847528 C6.85064602,13.7069506 6.62989147,13.523286 6.50524969,13.2772062 C6.43203315,13.132655 6.33649439,12.9050086 6.2442004,12.6096956 C5.95895488,11.6969954 5.89122173,10.7334618 6.19445102,9.79258763 C6.3697894,9.24853944 6.66409564,8.74783054 7.08278254,8.3092051 C7.62817554,7.73675102 8.57094119,6.7477963 9.79865144,5.46020253 L9.95958869,5.29141615 C10.5874379,4.63294928 11.0894959,4.1064507 12.0218833,3.12870961 C12.6398186,2.48073702 12.7852152,2.32827288 12.9097672,2.19767151 L12.9674175,2.13722164 C12.9872374,2.11643935 13.0082087,2.09444982 13.0319761,2.06952835 C14.283264,0.75732555 16.409683,0.637421688 17.8172465,1.79404888 Z M16.5471098,3.33896073 C15.9462403,2.84521255 15.0052607,2.89827222 14.4793441,3.44979136 C14.2772981,3.66164737 14.2772981,3.66164737 13.4692579,4.50896561 C12.4592075,5.56814751 11.954186,6.09775702 11.2471564,6.83927312 C10.0185953,8.12775926 9.07595717,9.11658017 8.53015189,9.68946633 C8.3216969,9.90784861 8.18201986,10.1454839 8.09803282,10.4060828 C7.9405767,10.8946451 7.98032883,11.4601365 8.15314444,12.0130947 L8.136,11.953 L8.21600265,11.9656065 C8.63409499,12.0177163 9.06327821,12.015608 9.4643942,11.938779 L9.70138246,11.8835511 C10.1054601,11.7716507 10.443936,11.5802829 10.7158659,11.2950729 C11.2568479,10.7280511 12.2043567,9.73480108 13.4427619,8.43655213 L13.644223,8.22535418 C14.6553664,7.16534081 14.711139,7.10687144 15.6592736,6.11289225 C16.2755567,5.46680581 16.4205645,5.31478547 16.5447316,5.18461256 L16.6021999,5.12436455 C16.6219562,5.10365265 16.6428594,5.08173834 16.6665496,5.05690212 C17.152287,4.54751194 17.1029583,3.79618014 16.5471098,3.33896073 Z" id="Stroke-3" fill="#5686E1"></path>
            <path d="M12.4696699,3.46966991 C12.7625631,3.1767767 13.2374369,3.1767767 13.5303301,3.46966991 L16.5303301,6.46966991 C16.8232233,6.76256313 16.8232233,7.23743687 16.5303301,7.53033009 C16.2374369,7.8232233 15.7625631,7.8232233 15.4696699,7.53033009 L12.4696699,4.53033009 C12.1767767,4.23743687 12.1767767,3.76256313 12.4696699,3.46966991 Z" id="Stroke-5" fill="#5686E1"></path>
        </g>
    </g>
</svg>