<?xml version="1.0" encoding="UTF-8"?>
<svg width="24px" height="24px" viewBox="0 0 24 24" version="1.1" xmlns="http://www.w3.org/2000/svg" xmlns:xlink="http://www.w3.org/1999/xlink">
    <title>peo</title>
    <g id="peo" stroke="none" stroke-width="1" fill="none" fill-rule="evenodd">
        <path d="M16.5,14 C17.4664983,14 18.3414983,14.3917508 18.9748737,15.0251263 C19.6082492,15.6585017 20,16.5335017 20,17.5 C20,18.4664983 19.6082492,19.3414983 18.9748737,19.9748737 C18.3414983,20.6082492 17.4664983,21 16.5,21 L7.5,21 C6.53350169,21 5.65850169,20.6082492 5.02512627,19.9748737 C4.39175084,19.3414983 4,18.4664983 4,17.5 C4,16.5335017 4.39175084,15.6585017 5.02512627,15.0251263 C5.65850169,14.3917508 6.53350169,14 7.5,14 Z M12,3 C13.1045695,3 14.1045695,3.44771525 14.8284271,4.17157288 C15.5522847,4.8954305 16,5.8954305 16,7 C16,8.1045695 15.5522847,9.1045695 14.8284271,9.82842712 C14.1045695,10.5522847 13.1045695,11 12,11 C10.8954305,11 9.8954305,10.5522847 9.17157288,9.82842712 C8.44771525,9.1045695 8,8.1045695 8,7 C8,5.8954305 8.44771525,4.8954305 9.17157288,4.17157288 C9.8954305,3.44771525 10.8954305,3 12,3 Z" stroke="#363853" stroke-width="2"></path>
        <line x1="8.77707672" y1="17.3943119" x2="14.5782547" y2="16.6863613" id="路径-2" stroke="#5686E1" stroke-width="1.5" stroke-linecap="round"></line>
    </g>
</svg>