<?xml version="1.0" encoding="UTF-8"?>
<svg width="24px" height="24px" viewBox="0 0 24 24" version="1.1" xmlns="http://www.w3.org/2000/svg" xmlns:xlink="http://www.w3.org/1999/xlink">
    <title>Safe</title>
    <g id="Safe" stroke="none" stroke-width="1" fill="none" fill-rule="evenodd">
        <g id="编组-8备份" transform="translate(3, 2)">
            <path d="M13,4.72066394 C16.3137085,4.72066394 19,7.40695544 19,10.7206639 L19,13.7206639 C19,17.0343724 16.3137085,19.7206639 13,19.7206639 L6,19.7206639 C2.6862915,19.7206639 0,17.0343724 0,13.7206639 L0,10.7206639 C0,7.40695544 2.6862915,4.72066394 6,4.72066394 L13,4.72066394 Z M13,6.72066394 L6,6.72066394 C3.790861,6.72066394 2,8.51152494 2,10.7206639 L2,13.7206639 C2,15.9298029 3.790861,17.7206639 6,17.7206639 L13,17.7206639 C15.209139,17.7206639 17,15.9298029 17,13.7206639 L17,10.7206639 C17,8.51152494 15.209139,6.72066394 13,6.72066394 Z" id="矩形" fill="#363853" fill-rule="nonzero"></path>
            <rect id="矩形" fill="#5686E1" x="8" y="9.72066394" width="3" height="5" rx="1.5"></rect>
            <path d="M9.50150068,-1 C13.8108062,-1 15.97012,1.81909135 15.97012,5.95343624 C15.97012,6.50572099 15.5224047,6.95343624 14.97012,6.95343624 C14.4178352,6.95343624 13.97012,6.50572099 13.97012,5.95343624 C13.97012,2.8248734 12.5723383,1 9.50150068,1 C6.42240956,1 5,2.83922067 5,5.95343624 C5,6.50572099 4.55228475,6.95343624 4,6.95343624 C3.44771525,6.95343624 3,6.50572099 3,5.95343624 C3,1.83068337 5.18918325,-1 9.50150068,-1 Z" id="椭圆形" fill="#363853" fill-rule="nonzero"></path>
        </g>
    </g>
</svg>