<?xml version="1.0" encoding="UTF-8"?>
<svg width="24px" height="24px" viewBox="0 0 24 24" version="1.1" xmlns="http://www.w3.org/2000/svg" xmlns:xlink="http://www.w3.org/1999/xlink">
    <title>Serve</title>
    <g id="Serve" stroke="none" stroke-width="1" fill="none" fill-rule="evenodd">
        <g id="编组" transform="translate(3, 2)">
            <path d="M8.99828026,0.0271370498 C9.11966111,0.0701547553 9.2484523,0.0980910403 9.38250693,0.108623728 L14.999191,0.54945947 L15,6.33384897 C15,6.88613372 14.5522847,7.33386314 14,7.33386314 C13.7112321,7.33386314 13.4365614,7.20901971 13.246659,6.99147902 L12,5.56338224 L10.753341,6.99147902 C10.390142,7.40753778 9.75842872,7.45038905 9.34236995,7.08719 C9.12482925,6.89728757 9,6.62261685 9,6.33384897 L8.99828026,0.0271370498 Z M10.498191,1.70045947 L10.499191,5.00045947 L10.8699884,4.57693716 C11.4325716,3.93247608 12.4086429,3.8945666 13.0198717,4.46320874 L13.1300116,4.57693716 L13.499191,5.00045947 L13.499191,1.93545947 L10.498191,1.70045947 Z" id="形状结合" fill="#5686E1" fill-rule="nonzero"></path>
            <path d="M13,0 C16.3137085,0 19,2.6862915 19,6 L19,14 C19,17.3137085 16.3137085,20 13,20 L6,20 C2.6862915,20 0,17.3137085 0,14 L0,6 C0,2.6862915 2.6862915,0 6,0 L13,0 Z M13,2 L6,2 C3.790861,2 2,3.790861 2,6 L2,14 C2,16.209139 3.790861,18 6,18 L13,18 C15.209139,18 17,16.209139 17,14 L17,6 C17,3.790861 15.209139,2 13,2 Z" id="矩形" fill="#363853" fill-rule="nonzero"></path>
            <rect id="矩形备份-27" fill="#5686E1" x="4" y="9" width="9" height="2" rx="1"></rect>
            <rect id="矩形备份-28" fill="#5686E1" x="5" y="13" width="6" height="2" rx="1"></rect>
        </g>
    </g>
</svg>