<?xml version="1.0" encoding="UTF-8"?>
<svg width="24px" height="24px" viewBox="0 0 24 24" version="1.1" xmlns="http://www.w3.org/2000/svg" xmlns:xlink="http://www.w3.org/1999/xlink">
    <title>Settings</title>
    <defs>
        <polygon id="path-1" points="0 0 20 0 20 20 0 20"></polygon>
    </defs>
    <g id="Settings" stroke="none" stroke-width="1" fill="none" fill-rule="evenodd">
        <g id="编组" transform="translate(2, 2)">
            <g>
                <mask id="mask-2" fill="white">
                    <use xlink:href="#path-1"></use>
                </mask>
                <g id="Clip-2"></g>
                <path d="M8.27892771,2.30379714 L8.69033839,2.54992493 C9.55371052,3.06630565 10.6277927,3.08042142 11.504254,2.58662594 L11.9220809,2.35153413 C12.828057,1.84105637 13.9714348,2.33228534 14.2250055,3.34092163 L14.3420381,3.80571561 C14.5871392,4.78150064 15.3368152,5.5509387 16.3056707,5.82170493 L16.7673849,5.95080011 C17.7688349,6.2305491 18.2300358,7.38650275 17.6962029,8.27887638 L17.4500751,8.69028706 C16.9336944,9.55365919 16.9195786,10.6277413 17.4133741,11.5042027 L17.6484659,11.9220296 C18.158687,12.8280057 17.6677147,13.9713835 16.6590784,14.2249541 L16.1940277,14.3419867 C15.2184994,14.5873446 14.4490613,15.3367639 14.1782951,16.305876 L14.0491999,16.7673335 C13.7694509,17.7690403 12.6134972,18.2299845 11.7211236,17.6961515 L11.3097129,17.4500237 C10.4463408,16.933643 9.37225865,16.9195272 8.4955407,17.4133227 L8.07797041,17.6484145 C7.17173765,18.1588923 6.02861653,17.6676633 5.77504588,16.659027 L5.65801327,16.1942331 C5.41265543,15.218448 4.66323611,14.44901 3.69438064,14.1782437 L3.23266647,14.0491486 C2.23095974,13.7693996 1.77001553,12.6134459 2.30384847,11.7210723 L2.54997626,11.3096616 C3.06635698,10.4462895 3.08047275,9.37220732 2.58667727,8.49574602 L2.35158546,8.07791908 C1.8411077,7.17194297 2.33233667,6.0285652 3.34097296,5.77499455 L3.80576694,5.65796194 C4.78155197,5.41286075 5.55099003,4.66318478 5.82175626,3.69432931 L5.95085144,3.23261514 C6.23060043,2.23116506 7.38655408,1.7699642 8.27892771,2.30379714 M4.61498582,1.80974502 L4.61498582,1.81000167 C4.25772839,3.08914754 3.24190589,4.07853504 1.95377725,4.40242791 L1.9535206,4.40242791 C0.371013898,4.80049277 -0.399707418,6.59447945 0.401042001,8.01632297 L0.401042001,8.01632297 C1.05267751,9.17381652 1.03419867,10.5915536 0.352278414,11.731595 L0.352278414,11.731595 C-0.48542867,13.1321365 0.238068962,14.9456286 1.80979635,15.3847575 L1.80979635,15.3850142 C3.08919887,15.7422716 4.07858637,16.7580941 4.40247924,18.0462227 L4.40247924,18.0464794 C4.80028745,19.6289861 6.59453078,20.3997074 8.0163743,19.598958 L8.0163743,19.598958 C9.17386785,18.9470658 10.591605,18.9658013 11.7316463,19.6477216 L11.7316463,19.6477216 C13.1321878,20.4854287 14.9456799,19.761931 15.3848089,18.1902037 L15.3848089,18.1902037 C15.7423229,16.9108011 16.7581454,15.9214136 18.0462741,15.5975208 L18.0462741,15.5975208 C19.6290374,15.1994559 20.3997587,13.4054692 19.5990093,11.9836257 L19.5990093,11.9836257 C18.9471172,10.8261321 18.9658527,9.40839504 19.6475163,8.26835372 L19.6477729,8.26835372 C20.48548,6.86781218 19.7617257,5.05432007 18.190255,4.61519114 L18.1899983,4.61519114 C16.9108525,4.25767706 15.921465,3.24185456 15.5975721,1.95372592 L15.5975721,1.95372592 C15.1995072,0.370962568 13.4055206,-0.399758749 11.983677,0.400990671 L11.983677,0.400990671 C10.8261835,1.05288283 9.40818972,1.03414734 8.26840505,0.352483735 L8.26840505,0.352227084 C6.86786351,-0.485480001 5.0543714,0.238274282 4.61498582,1.80974502" id="Fill-1" fill="#363853" mask="url(#mask-2)"></path>
            </g>
            <path d="M13.3333333,10 C13.3333333,11.8408946 11.8408946,13.3333333 10,13.3333333 C8.15910542,13.3333333 6.66666667,11.8408946 6.66666667,10 C6.66666667,8.15910542 8.15910542,6.66666667 10,6.66666667 C11.8408946,6.66666667 13.3333333,8.15910542 13.3333333,10 Z" id="Stroke-3" stroke="#5686E1" stroke-width="2"></path>
        </g>
    </g>
</svg>