<?xml version="1.0" encoding="UTF-8"?>
<svg width="24px" height="24px" viewBox="0 0 24 24" version="1.1" xmlns="http://www.w3.org/2000/svg" xmlns:xlink="http://www.w3.org/1999/xlink">
    <title>Wallet</title>
    <g id="Wallet" stroke="none" stroke-width="1" fill="none" fill-rule="evenodd">
        <g id="编组" transform="translate(2, 2)" fill-rule="nonzero">
            <path d="M19.4266183,6.0847168 C19.8408318,6.0847168 20.1766183,6.42050323 20.1766183,6.8347168 C20.1766183,7.24893036 19.8408318,7.5847168 19.4266183,7.5847168 L15.5704286,7.5847168 C14.5694033,7.5847168 13.7575684,8.39655048 13.7575684,9.39757329 C13.7575684,10.3994453 14.569299,11.2113833 15.5704286,11.2113833 L19.4570923,11.2113833 C19.8713058,11.2113833 20.2070923,11.5471698 20.2070923,11.9613833 C20.2070923,12.3755969 19.8713058,12.7113833 19.4570923,12.7113833 L15.5704286,12.7113833 C13.7407862,12.7113833 12.2575684,11.2277867 12.2575684,9.39757329 C12.2575684,7.56812282 13.7409767,6.0847168 15.5704286,6.0847168 L19.4266183,6.0847168 Z" id="Stroke-1" fill="#363853"></path>
            <path d="M14.8528486,8.33246288 C15.1457418,8.03956966 15.6206156,8.03956966 15.9135088,8.33246288 L16.8658898,9.28484384 C17.158783,9.57773706 17.158783,10.0526108 16.8658898,10.345504 C16.5729965,10.6383972 16.0981228,10.6383972 15.8052296,10.345504 L14.8528486,9.39312305 C14.5599554,9.10022984 14.5599554,8.6253561 14.8528486,8.33246288 Z" id="Stroke-3" fill="#363853"></path>
            <path d="M5.16191033,4.78208612 C5.25650733,4.37881911 5.66010586,4.12859262 6.06337287,4.22318962 L10.1233728,5.17557058 C10.5266398,5.27016758 10.7768663,5.67376611 10.6822693,6.07703312 C10.5876723,6.48030013 10.1840738,6.73052661 9.78080676,6.63592961 L5.72080682,5.68354866 C5.31753981,5.58895166 5.06731333,5.18535313 5.16191033,4.78208612 Z" id="Stroke-5" fill="#5686E1"></path>
            <path d="M10.3009597,0 C17.810424,0 20.6009521,2.56213766 20.6009521,9.53904724 C20.6009521,16.5153612 17.8100254,19.0780945 10.3009597,19.0780945 C2.79104025,19.0780945 0,16.5154703 0,9.53904724 C0,2.56202863 2.79064159,0 10.3009597,0 Z M10.3009597,2 C3.85885238,2 2,3.7065728 2,9.53904724 C2,15.3709697 3.85928706,17.0780945 10.3009597,17.0780945 C16.7417451,17.0780945 18.6009521,15.3709011 18.6009521,9.53904724 C18.6009521,3.70664135 16.7421798,2 10.3009597,2 Z" id="Stroke-7" fill="#363853"></path>
        </g>
    </g>
</svg>