<?xml version="1.0" encoding="UTF-8"?>
<svg width="24px" height="24px" viewBox="0 0 24 24" version="1.1" xmlns="http://www.w3.org/2000/svg" xmlns:xlink="http://www.w3.org/1999/xlink">
    <title>White</title>
    <g id="White" stroke="none" stroke-width="1" fill="none" fill-rule="evenodd">
        <g id="编组" transform="translate(2, 2)">
            <rect id="矩形" fill="#5686E1" x="0" y="0" width="20" height="20" rx="8"></rect>
            <g id="peo备份" transform="translate(3, 1)" stroke="#FFFFFF" stroke-width="2">
                <path d="M10.5,9.55555556 C11.1903559,9.55555556 11.8153559,9.83537759 12.267767,10.2877886 C12.720178,10.7401996 13,11.3651996 13,12.0555556 C13,12.7459115 12.720178,13.3709115 12.267767,13.8233225 C11.8153559,14.2757335 11.1903559,14.5555556 10.5,14.5555556 L3.5,14.5555556 C2.80964406,14.5555556 2.18464406,14.2757335 1.73223305,13.8233225 C1.27982203,13.3709115 1,12.7459115 1,12.0555556 C1,11.3651996 1.27982203,10.7401996 1.73223305,10.2877886 C2.18464406,9.83537759 2.80964406,9.55555556 3.5,9.55555556 Z M7,1 C7.79774464,1 8.51996686,1.3233499 9.04275292,1.84613597 C9.56553899,2.36892203 9.88888889,3.09114425 9.88888889,3.88888889 C9.88888889,4.68663353 9.56553899,5.40885575 9.04275292,5.93164181 C8.51996686,6.45442787 7.79774464,6.77777778 7,6.77777778 C6.20225536,6.77777778 5.48003314,6.45442787 4.95724708,5.93164181 C4.43446101,5.40885575 4.11111111,4.68663353 4.11111111,3.88888889 C4.11111111,3.09114425 4.43446101,2.36892203 4.95724708,1.84613597 C5.48003314,1.3233499 6.20225536,1 7,1 Z" id="peo"></path>
            </g>
            <circle id="椭圆形" stroke="#5686E1" fill="#FFFFFF" cx="14.5" cy="13.5" r="4.5"></circle>
        </g>
        <g id="24x24/On-Light/Checkmark" transform="translate(14.5, 13.5)" fill="#5686E1" fill-rule="nonzero">
            <path d="M2.44236218,3.87407559 C2.29122165,4.00396188 2.27590619,4.22959113 2.40815416,4.37803261 C2.54040214,4.52647409 2.77013391,4.54151604 2.92127445,4.41162974 L4.37581938,3.16163119 C4.53723,3.02291905 4.54197226,2.77784218 4.38604444,2.63320686 L1.11331835,-0.402503898 C0.967311761,-0.537936493 0.737163953,-0.531478269 0.599268838,-0.388079051 C0.461373722,-0.244679832 0.467949374,-0.018641987 0.613955967,0.116790608 L3.59588694,2.88276604 L2.44236218,3.87407559 Z" id="Shape" transform="translate(2.5, 2) rotate(-270) translate(-2.5, -2)"></path>
        </g>
    </g>
</svg>